/* XPM */
static char * char_run2_xpm[] = {
"124 68 6 1",
" 	c #1EFA48",
".	c #432B4F",
"+	c #82468F",
"@	c #262B44",
"#	c #AB44E3",
"$	c #ECE4F2",
"                                                                                                                            ",
"                                                                                                                            ",
"                                                                                                                            ",
"                                                                                                                            ",
"                                                                                                                            ",
"                                                                                                                            ",
"                                                                                                                            ",
"                                                                                                                            ",
"                        ................................................                                                    ",
"                        ................................................                                                    ",
"                        ................................................                                                    ",
"                        ................................................                                                    ",
"                ........++++++++++++++++++++++++++++++++++++++++++++++++........                                            ",
"                ........++++++++++++++++++++++++++++++++++++++++++++++++........                                            ",
"                ........++++++++++++++++++++++++++++++++++++++++++++++++........                                            ",
"                ........++++++++++++++++++++++++++++++++++++++++++++++++........                                            ",
"                        ................++++++++++++++++++++++++++++++++....            ................                    ",
"                        ................++++++++++++++++++++++++++++++++....            ................                    ",
"                        ................++++++++++++++++++++++++++++++++....            ................@@@@                ",
"                        ................++++++++++++++++++++++++++++++++....            ................@@@@                ",
"                                        ........++++++++++++++++++++....            ....########............                ",
"                                        ........++++++++++++++++++++....            ....########............                ",
"                                        ........++++++++++++++++++++....            ....########............                ",
"                                        ........++++++++++++++++++++....            ....########............                ",
"                                                ....++++++++++++++++....        ....########....$$$$....####....            ",
"                                                ....++++++++++++++++....        ....########....$$$$....####....            ",
"                                                ....++++++++++++++++....        ....########....$$$$....####....            ",
"                                                ....++++++++++++++++....        ....########....$$$$....####....            ",
"............                                        ....++++++++++++++++....    ....############$$$$....########........    ",
"............                                        ....++++++++++++++++....    ....############$$$$....########........    ",
"............                                        ....++++++++++++++++....    ....############$$$$....########........    ",
"............                                        ....++++++++++++++++....    ....############$$$$....########........    ",
"            ............                                ........++++++++####....############################++++++++++++....",
"            ............                                ........++++++++####....############################++++++++++++....",
"            ............                                ........++++++++####....############################++++++++++++....",
"            ............                                ........++++++++####....############################++++++++++++....",
"                        ................................####################....########....################++++++++....    ",
"                        ................................####################....########....################++++++++....    ",
"                        ................................####################....########....################++++++++....    ",
"                        ................................####################....########....################++++++++....    ",
"                                        ........########################################............................        ",
"                                        ........########################################............................        ",
"                                        ........########################################............................        ",
"                                        ........########################################............................        ",
"                                                ........########################........                                    ",
"                                                ........########################........                                    ",
"                                                ........########################........                                    ",
"                                                ........########################........                                    ",
"                                                        ........................                                            ",
"                                                        ........................                                            ",
"                                                        ........................                                            ",
"                                                        ........................                                            ",
"                                                ................    ............                                            ",
"                                                ................    ............                                            ",
"                                                ................    ............                                            ",
"                                                ................    ............                                            ",
"                                            ........                        ........    ....                                ",
"                                            ........                        ........    ....                                ",
"                                            ........                        ........    ....                                ",
"                                            ........                        ........    ....                                ",
"                                            ........                            ........                                    ",
"                                            ........                            ........                                    ",
"                                            ........                            ........                                    ",
"                                            ........                            ........                                    ",
"                                                ........                                                                    ",
"                                                ........                                                                    ",
"                                                ........                                                                    ",
"                                                ........                                                                    "};
