/* XPM */
static char * char_fly1_xpm[] = {
"124 68 9 1",
" 	c #1EFA48",
".	c #432B4F",
"+	c #82468F",
"@	c #3A4466",
"#	c #181425",
"$	c #AB44E3",
"%	c #ECE4F2",
"&	c #909990",
"*	c #262B44",
"                                                                                                                            ",
"                                                                                                                            ",
"                                                                                                                            ",
"                                                                                                                            ",
"                                                                                                                            ",
"                                                                                                                            ",
"                                                                                                                            ",
"                                                                                                                            ",
"                                                                                                                            ",
"                                                                                                                            ",
"                                                                                                                            ",
"                                                                                                                            ",
"                                        ........................                                                            ",
"                                        ........................                                                            ",
"                                        ........................                                                            ",
"                                        ........................                                                            ",
"                                ........++++++++++++++++++++++++....                                                        ",
"                                ........++++++++++++++++++++++++....                                                        ",
"                              @@........++++++++++++++++++++++++....                                                        ",
"                              @@........++++++++++++++++++++++++....                                                        ",
"                            ....++++++++++++++++++++++++++++++++++++....                                                    ",
"                            ....++++++++++++++++++++++++++++++++++++....                                                    ",
"                            ....++++++++++++++++++++++++++++++++++++....                                                    ",
"                            ....++++++++++++++++++++++++++++++++++++....                                                    ",
"                        ....++++++++++++++++++++++++++++++++++++++++++++....            ................                    ",
"                        ....++++++++++++++++++++++++++++++++++++++++++++....            ................                    ",
"                    ####....++++++++++++++++++++++++++++++++++++++++++++....            ................                    ",
"                    ####....++++++++++++++++++++++++++++++++++++++++++++....            ................                    ",
"                    ....++++++++++++++++++++++++++++++++++++++++++++++++++++....    ....$$$$$$$$............                ",
"                    ....++++++++++++++++++++++++++++++++++++++++++++++++++++....    ....$$$$$$$$............                ",
"                    ....++++++++++++++++++++++++++++++++++++++++++++++++++++....    ....$$$$$$$$............                ",
"                    ....++++++++++++++++++++++++++++++++++++++++++++++++++++....    ....$$$$$$$$............                ",
"....            ....++++++++++++++++++++++++++++++++++++++++++++++++++++++++........$$$$$$$$....%%%%....$$$$....            ",
"....            ....++++++++++++++++++++++++++++++++++++++++++++++++++++++++........$$$$$$$$....%%%%....$$$$....            ",
"....            ....++++++++++++++++++++++++++++++++++++++++++++++++++++++++........$$$$$$$$....%%%%....$$$$....            ",
"....            ....++++++++++++++++++++++++++++++++++++++++++++++++++++++++........$$$$$$$$....%%%%....$$$$....            ",
"    ....            ............++++++++++++++++++++++++++++++++++++++++....&&&&....$$$$$$$$$$$$%%%%....$$$$$$$$........    ",
"    ....            ............++++++++++++++++++++++++++++++++++++++++....&&&&....$$$$$$$$$$$$%%%%....$$$$$$$$........    ",
"    ....            ............++++++++++++++++++++++++++++++++++++++++....&&&&....$$$$$$$$$$$$%%%%....$$$$$$$$........    ",
"    ....            ............++++++++++++++++++++++++++++++++++++++++....&&&&....$$$$$$$$$$$$%%%%....$$$$$$$$........    ",
"        ........                ............++++++++++++++++++++++++....$$$$....$$$$$$$$$$$$$$$$$$$$$$$$$$$$++++++++++++....",
"        ........                ............++++++++++++++++++++++++....$$$$....$$$$$$$$$$$$$$$$$$$$$$$$$$$$++++++++++++....",
"        ........                ............++++++++++++++++++++++++....$$$$....$$$$$$$$$$$$$$$$$$$$$$$$$$$$++++++++++++....",
"        ........                ............++++++++++++++++++++++++....$$$$....$$$$$$$$$$$$$$$$$$$$$$$$$$$$++++++++++++....",
"                ........................................++++++++++++$$$$$$$$....$$$$$$$$....$$$$$$$$$$$$$$$$++++++++....    ",
"                ........................................++++++++++++$$$$$$$$....$$$$$$$$....$$$$$$$$$$$$$$$$++++++++....    ",
"                ........................................++++++++++++$$$$$$$$....$$$$$$$$....$$$$$$$$$$$$$$$$++++++++....    ",
"                ........................................++++++++++++$$$$$$$$....$$$$$$$$....$$$$$$$$$$$$$$$$++++++++....    ",
"                                        ........$$$$$$$$$$$$$$$$$$$$$$$$$$$$$$$$$$$$$$$$............................        ",
"                                        ........$$$$$$$$$$$$$$$$$$$$$$$$$$$$$$$$$$$$$$$$............................        ",
"                                        ........$$$$$$$$$$$$$$$$$$$$$$$$$$$$$$$$$$$$$$$$............................        ",
"                                        ........$$$$$$$$$$$$$$$$$$$$$$$$$$$$$$$$$$$$$$$$............................        ",
"                                                ........$$$$$$$$$$$$$$$$$$$$$$$$........                                    ",
"                                                ........$$$$$$$$$$$$$$$$$$$$$$$$........                                    ",
"                                                ........$$$$$$$$$$$$$$$$$$$$$$$$........                                    ",
"                                                ........$$$$$$$$$$$$$$$$$$$$$$$$........                                    ",
"                                                        ........................                                            ",
"                                                        ........................                                            ",
"                                                        ........................                                            ",
"                                                        ........................                                            ",
"                                                          **............                                                    ",
"                                                          **............                                                    ",
"                                                            ............                                                    ",
"                                                            ............                                                    ",
"                                                        ....                                                                ",
"                                                        ....                                                                ",
"                                                        ....                                                                ",
"                                                        ....                                                                "};
