/* XPM */
static char * background_xpm[] = {
"64 64 7 1",
" 	c #181425",
".	c #3A4466",
"+	c #262B44",
"@	c #303754",
"#	c #394364",
"$	c #1F2035",
"%	c #22253B",
"        ......+                       ......++                  ",
"        ......+                       ......++                  ",
"..    ..++++++++++    ......++    ....+++++++++     ......++    ",
"..    ..++++++++++    ......++    ....+++++++++     ......++    ",
"++    ..++++++++++  ..++++++++    ++..+++++++++   ..++++++++    ",
"++    ..++++++++++  ..++++++++    ++..+++++++++   ..++++++++    ",
"++..    +++++++     ..++++++    ..++++++++++++    ..++++++    ..",
"++..    +++++++     ..++++++    ..++++++++++++    ..++++++    ..",
"++++++    ++++                ..++++++++++++                ..++",
"++++++    ++++                ..++++++++++++                ..++",
"  ++++         .......++      ..++++++++      ......++      ..++",
"  ++++         .......++      ..++++++++      ......++      ..++",
"  ++++        .+++++++++++    ++++++        ..++++++++++    ++++",
"  ++++        .+++++++++++    ++++++        ..++++++++++    ++++",
"  ++        ..++++++++++++      ++        ..++++++++++++      ++",
"            ..++++++++++                  ..++++++++++          ",
"            ..++++++++++                  ..++++++++++          ",
"            ..++++++++++                  ..++++++++++          ",
"  ....++      ++++++++        ....  ++      ++++++++        ....",
"  ....++      ++++++++        ....  ++      ++++++++        ....",
"  ++++++++                  ..++++++++++                  ..++++",
"  ++++++++                  ..++++++++++                  ..++++",
"..++++++++++                ..++++@@++++++                ..++++",
"..++++++++++                ..++++@@++++++                ..++++",
"++++++++++++   .........++  ##++++++++++++    ........++  ..++++",
"++++++++++++   .........++  ##++++++++++++    ........++  ..++++",
"++++++++++++  .+++++++++++  $$++++++++++++  ..++++++++++  ++++++",
"++++++++++++  .+++++++++++  $$++++++++++++  ..++++++++++  ++++++",
"  ++++++++    .+++++++++++    %%++++++++    ..++++++++++    ++++",
"  ++++++++    .+++++++++++    %%++++++++    ..++++++++++    ++++",
"               +++++++++                      ++++++++          ",
"               +++++++++                      ++++++++          ",
"        ......+                       ......++                  ",
"        ......+                       ......++                  ",
"..    ..++++++++++    ......++    ....+++++++++     ......++    ",
"..    ..++++++++++    ......++    ....+++++++++     ......++    ",
"++    ..++++++++++  ..++++++++    ++..+++++++++   ..++++++++    ",
"++    ..++++++++++  ..++++++++    ++..+++++++++   ..++++++++    ",
"++..    +++++++     ..++++++    ..++++++++++++    ..++++++    ..",
"++..    +++++++     ..++++++    ..++++++++++++    ..++++++    ..",
"++++++    ++++                ..++++++++++++                ..++",
"++++++    ++++                ..++++++++++++                ..++",
"  ++++         .......++      ..++++++        ......++      ..++",
"  ++++         .......++      ..++++++        ......++      ..++",
"  ++++        .+++++++++++    ++++++        ..++++++++++    ++++",
"  ++++        .+++++++++++    ++++++        ..++++++++++    ++++",
"  ++        ..++++++++++++      ++        ..++++++++++++      ++",
"            ..++++++++++                  ..++++++++++          ",
"            ..++++++++++                  ..++++++++++          ",
"            ..++++++++++                  ..++++++++++          ",
"  ....++      ++++++++        ....  ++      ++++++++        ....",
"  ....++      ++++++++        ....  ++      ++++++++        ....",
"  ++++++++                  ..++++  ++++                  ..++++",
"  ++++++++                  ..++++  ++++                  ..++++",
"..++++++++++                ..++++..++++++                ..++++",
"..++++++++++                ..++++..++++++                ..++++",
"++++++++++++   .........++  ..++++++++++++    ........++  ..++++",
"++++++++++++   .........++  ..++++++++++++    ........++  ..++++",
"++++++++++++  .+++++++++++  ++++++++++++++  ..++++++++++  ++++++",
"++++++++++++  .+++++++++++  ++++++++++++++  ..++++++++++  ++++++",
"  ++++++++    .+++++++++++    ++++  ++++    ..++++++++++    ++++",
"  ++++++++    .+++++++++++    ++++  ++++    ..++++++++++    ++++",
"               +++++++++                      ++++++++          ",
"               +++++++++                      ++++++++          "};
