/* XPM */
static char * background_xpm[] = {
"64 64 4 1",
" 	c #262B44",
".	c #6F7F9A",
"+	c #4C5A79",
"@	c #3A4466",
"   ...+            ...+            ...+            ...+         ",
"  .+++@   ...+    .+++@   ...+    .+++@   ...+    .+++@   ...+  ",
"  .+++@  .+++@    .+++@  .+++@    .+++@  .+++@    .+++@  .+++@  ",
".. @++@  .++@  ... @++@  .++@  ... @++@  .++@  ... @++@  .++@  .",
"++@ @@    @@  .+++@ @@    @@  .+++@ @@    @@  .+++@ @@    @@  .+",
"++@    ....+  .+++@    ....+  .+++@    ....+  .+++@    ....+  .+",
"++@   .++++@  @+++@   .++++@  @+++@   .++++@  @+++@   .++++@  @+",
"@@   .+++++@   @@@   .+++++@   @@@   .+++++@   @@@   .+++++@   @",
"     .++++@          .++++@          .++++@          .++++@     ",
"..+   @@@@    ....+   @@@@    ....+   @@@@    ....+   @@@@    ..",
"++@          .++++@          .++++@          .++++@          .++",
"+++@         .+++++@         .+++++@         .+++++@         .++",
"+++@   ....+ .+++++@   ....+ .+++++@   ....+ .+++++@   ....+ .++",
"+++@  .++++@ @+++++@  .++++@ @+++++@  .++++@ @+++++@  .++++@ @++",
"@@@   .++++@  @@@@@   .++++@  @@@@@   .++++@  @@@@@   .++++@  @@",
"       @@@@            @@@@            @@@@            @@@@     ",
"   ...+            ...+            ...+            ...+         ",
"  .+++@   ...+    .+++@   ...+    .+++@   ...+    .+++@   ...+  ",
"  .+++@  .+++@    .+++@  .+++@    .+++@  .+++@    .+++@  .+++@  ",
".. @++@  .++@  ... @++@  .++@  ... @++@  .++@  ... @++@  .++@  .",
"++@ @@    @@  .+++@ @@    @@  .+++@ @@    @@  .+++@ @@    @@  .+",
"++@    ....+  .+++@    ....+  .+++@    ....+  .+++@    ....+  .+",
"++@   .++++@  @+++@   .++++@  @+++@   .++++@  @+++@   .++++@  @+",
"@@   .+++++@   @@@   .+++++@   @@@   .+++++@   @@@   .+++++@   @",
"     .++++@          .++++@          .++++@          .++++@     ",
"..+   @@@@    ....+   @@@@    ....+   @@@@    ....+   @@@@    ..",
"++@          .++++@          .++++@          .++++@          .++",
"+++@         .+++++@         .+++++@         .+++++@         .++",
"+++@   ....+ .+++++@   ....+ .+++++@   ....+ .+++++@   ....+ .++",
"+++@  .++++@ @+++++@  .++++@ @+++++@  .++++@ @+++++@  .++++@ @++",
"@@@   .++++@  @@@@@   .++++@  @@@@@   .++++@  @@@@@   .++++@  @@",
"       @@@@            @@@@            @@@@            @@@@     ",
"   ...+            ...+            ...+            ...+         ",
"  .+++@   ...+    .+++@   ...+    .+++@   ...+    .+++@   ...+  ",
"  .+++@  .+++@    .+++@  .+++@    .+++@  .+++@    .+++@  .+++@  ",
".. @++@  .++@  ... @++@  .++@  ... @++@  .++@  ... @++@  .++@  .",
"++@ @@    @@  .+++@ @@    @@  .+++@ @@    @@  .+++@ @@    @@  .+",
"++@    ....+  .+++@    ....+  .+++@    ....+  .+++@    ....+  .+",
"++@   .++++@  @+++@   .++++@  @+++@   .++++@  @+++@   .++++@  @+",
"@@   .+++++@   @@@   .+++++@   @@@   .+++++@   @@@   .+++++@   @",
"     .++++@          .++++@          .++++@          .++++@     ",
"..+   @@@@    ....+   @@@@    ....+   @@@@    ....+   @@@@    ..",
"++@          .++++@          .++++@          .++++@          .++",
"+++@         .+++++@         .+++++@         .+++++@         .++",
"+++@   ....+ .+++++@   ....+ .+++++@   ....+ .+++++@   ....+ .++",
"+++@  .++++@ @+++++@  .++++@ @+++++@  .++++@ @+++++@  .++++@ @++",
"@@@   .++++@  @@@@@   .++++@  @@@@@   .++++@  @@@@@   .++++@  @@",
"       @@@@            @@@@            @@@@            @@@@     ",
"   ...+            ...+            ...+            ...+         ",
"  .+++@   ...+    .+++@   ...+    .+++@   ...+    .+++@   ...+  ",
"  .+++@  .+++@    .+++@  .+++@    .+++@  .+++@    .+++@  .+++@  ",
".. @++@  .++@  ... @++@  .++@  ... @++@  .++@  ... @++@  .++@  .",
"++@ @@    @@  .+++@ @@    @@  .+++@ @@    @@  .+++@ @@    @@  .+",
"++@    ....+  .+++@    ....+  .+++@    ....+  .+++@    ....+  .+",
"++@   .++++@  @+++@   .++++@  @+++@   .++++@  @+++@   .++++@  @+",
"@@   .+++++@   @@@   .+++++@   @@@   .+++++@   @@@   .+++++@   @",
"     .++++@          .++++@          .++++@          .++++@     ",
"..+   @@@@    ....+   @@@@    ....+   @@@@    ....+   @@@@    ..",
"++@          .++++@          .++++@          .++++@          .++",
"+++@         .+++++@         .+++++@         .+++++@         .++",
"+++@   ....+ .+++++@   ....+ .+++++@   ....+ .+++++@   ....+ .++",
"+++@  .++++@ @+++++@  .++++@ @+++++@  .++++@ @+++++@  .++++@ @++",
"@@@   .++++@  @@@@@   .++++@  @@@@@   .++++@  @@@@@   .++++@  @@",
"       @@@@            @@@@            @@@@            @@@@     "};
