/* XPM */
static char * char_run2_left_xpm[] = {
"124 68 5 1",
" 	c #1EFA48",
".	c #432B4F",
"+	c #82468F",
"@	c #AB44E3",
"#	c #ECE4F2",
"                                                                                                                            ",
"                                                                                                                            ",
"                                                                                                                            ",
"                                                                                                                            ",
"                                                                                                                            ",
"                                                                                                                            ",
"                                                                                                                            ",
"                                                                                                                            ",
"                                                    ................................................                        ",
"                                                    ................................................                        ",
"                                                    ................................................                        ",
"                                                    ................................................                        ",
"                                            ........++++++++++++++++++++++++++++++++++++++++++++++++........                ",
"                                            ........++++++++++++++++++++++++++++++++++++++++++++++++........                ",
"                                            ........++++++++++++++++++++++++++++++++++++++++++++++++........                ",
"                                            ........++++++++++++++++++++++++++++++++++++++++++++++++........                ",
"                    ................            ....++++++++++++++++++++++++++++++++................                        ",
"                    ................            ....++++++++++++++++++++++++++++++++................                        ",
"                    ................            ....++++++++++++++++++++++++++++++++................                        ",
"                    ................            ....++++++++++++++++++++++++++++++++................                        ",
"                ............@@@@@@@@....            ....++++++++++++++++++++........                                        ",
"                ............@@@@@@@@....            ....++++++++++++++++++++........                                        ",
"                ............@@@@@@@@....            ....++++++++++++++++++++........                                        ",
"                ............@@@@@@@@....            ....++++++++++++++++++++........                                        ",
"            ....@@@@....####....@@@@@@@@....        ....++++++++++++++++....                                                ",
"            ....@@@@....####....@@@@@@@@....        ....++++++++++++++++....                                                ",
"            ....@@@@....####....@@@@@@@@....        ....++++++++++++++++....                                                ",
"            ....@@@@....####....@@@@@@@@....        ....++++++++++++++++....                                                ",
"    ........@@@@@@@@....####@@@@@@@@@@@@....    ....++++++++++++++++....                                        ............",
"    ........@@@@@@@@....####@@@@@@@@@@@@....    ....++++++++++++++++....                                        ............",
"    ........@@@@@@@@....####@@@@@@@@@@@@....    ....++++++++++++++++....                                        ............",
"    ........@@@@@@@@....####@@@@@@@@@@@@....    ....++++++++++++++++....                                        ............",
"....++++++++++++@@@@@@@@@@@@@@@@@@@@@@@@@@@@....@@@@++++++++........                                ............            ",
"....++++++++++++@@@@@@@@@@@@@@@@@@@@@@@@@@@@....@@@@++++++++........                                ............            ",
"....++++++++++++@@@@@@@@@@@@@@@@@@@@@@@@@@@@....@@@@++++++++........                                ............            ",
"....++++++++++++@@@@@@@@@@@@@@@@@@@@@@@@@@@@....@@@@++++++++........                                ............            ",
"    ....++++++++@@@@@@@@@@@@@@@@....@@@@@@@@....@@@@@@@@@@@@@@@@@@@@................................                        ",
"    ....++++++++@@@@@@@@@@@@@@@@....@@@@@@@@....@@@@@@@@@@@@@@@@@@@@................................                        ",
"    ....++++++++@@@@@@@@@@@@@@@@....@@@@@@@@....@@@@@@@@@@@@@@@@@@@@................................                        ",
"    ....++++++++@@@@@@@@@@@@@@@@....@@@@@@@@....@@@@@@@@@@@@@@@@@@@@................................                        ",
"        ............................@@@@@@@@@@@@@@@@@@@@@@@@@@@@@@@@@@@@@@@@........                                        ",
"        ............................@@@@@@@@@@@@@@@@@@@@@@@@@@@@@@@@@@@@@@@@........                                        ",
"        ............................@@@@@@@@@@@@@@@@@@@@@@@@@@@@@@@@@@@@@@@@........                                        ",
"        ............................@@@@@@@@@@@@@@@@@@@@@@@@@@@@@@@@@@@@@@@@........                                        ",
"                                    ........@@@@@@@@@@@@@@@@@@@@@@@@........                                                ",
"                                    ........@@@@@@@@@@@@@@@@@@@@@@@@........                                                ",
"                                    ........@@@@@@@@@@@@@@@@@@@@@@@@........                                                ",
"                                    ........@@@@@@@@@@@@@@@@@@@@@@@@........                                                ",
"                                            ........................                                                        ",
"                                            ........................                                                        ",
"                                            ........................                                                        ",
"                                            ........................                                                        ",
"                                            ............    ................                                                ",
"                                            ............    ................                                                ",
"                                            ............    ................                                                ",
"                                            ............    ................                                                ",
"                                ....    ........                        ........                                            ",
"                                ....    ........                        ........                                            ",
"                                ....    ........                        ........                                            ",
"                                ....    ........                        ........                                            ",
"                                    ........                            ........                                            ",
"                                    ........                            ........                                            ",
"                                    ........                            ........                                            ",
"                                    ........                            ........                                            ",
"                                                                    ........                                                ",
"                                                                    ........                                                ",
"                                                                    ........                                                ",
"                                                                    ........                                                "};
