/* XPM */
static char * char_run1_xpm[] = {
"62 34 6 1",
" 	c #1EFA48",
".	c #432B4F",
"+	c #82468F",
"@	c #AB44E3",
"#	c #ECE4F2",
"$	c #262B44",
"                                                              ",
"                                                              ",
"            ........................                          ",
"            ........................                          ",
"        ....++++++++++++++++++++++++....                      ",
"        ....++++++++++++++++++++++++....                      ",
"            ........++++++++++++++++..      ........          ",
"            ........++++++++++++++++..      ........          ",
"                    ....++++++++++..      ..@@@@......        ",
"                    ....++++++++++..      ..@@@@......        ",
"..                      ..++++++++..    ..@@@@..##..@@..      ",
"..                      ..++++++++..    ..@@@@..##..@@..      ",
"  ....                    ..++++++++..  ..@@@@@@##..@@@@....  ",
"  ....                    ..++++++++..  ..@@@@@@##..@@@@....  ",
"      ......                ....++++@@..@@@@@@@@@@@@@@++++++..",
"      ......                ....++++@@..@@@@@@@@@@@@@@++++++..",
"            ................@@@@@@@@@@..@@@@..@@@@@@@@++++..  ",
"            ................@@@@@@@@@@..@@@@..@@@@@@@@++++..  ",
"                    ....@@@@@@@@@@@@@@@@@@@@..............    ",
"                    ....@@@@@@@@@@@@@@@@@@@@..............    ",
"                        ....@@@@@@@@@@@@....                  ",
"                        ....@@@@@@@@@@@@....                  ",
"                            ............                      ",
"                            ............                      ",
"                            ....  ....    ..                  ",
"                            ....  ....    ..                  ",
"                          ....      ......$                   ",
"                          ....      ......                    ",
"                        ....                                  ",
"                        ....                                  ",
"                        ..    ..                              ",
"                        ..    ..                              ",
"                          ....                                ",
"                          ....                                "};
