/* XPM */
static char * char_run1_left_xpm[] = {
"62 34 5 1",
" 	c #1EFA48",
".	c #432B4F",
"+	c #82468F",
"@	c #AB44E3",
"#	c #ECE4F2",
"                                                              ",
"                                                              ",
"                          ........................            ",
"                          ........................            ",
"                      ....++++++++++++++++++++++++....        ",
"                      ....++++++++++++++++++++++++....        ",
"          ........      ..++++++++++++++++........            ",
"          ........      ..++++++++++++++++........            ",
"        ......@@@@..      ..++++++++++....                    ",
"        ......@@@@..      ..++++++++++....                    ",
"      ..@@..##..@@@@..    ..++++++++..                      ..",
"      ..@@..##..@@@@..    ..++++++++..                      ..",
"  ....@@@@..##@@@@@@..  ..++++++++..                    ....  ",
"  ....@@@@..##@@@@@@..  ..++++++++..                    ....  ",
"..++++++@@@@@@@@@@@@@@..@@++++....                ......      ",
"..++++++@@@@@@@@@@@@@@..@@++++....                ......      ",
"  ..++++@@@@@@@@..@@@@..@@@@@@@@@@................            ",
"  ..++++@@@@@@@@..@@@@..@@@@@@@@@@................            ",
"    ..............@@@@@@@@@@@@@@@@@@@@....                    ",
"    ..............@@@@@@@@@@@@@@@@@@@@....                    ",
"                  ....@@@@@@@@@@@@....                        ",
"                  ....@@@@@@@@@@@@....                        ",
"                      ............                            ",
"                      ............                            ",
"                  ..    ....  ....                            ",
"                  ..    ....  ....                            ",
"                    ......      ....                          ",
"                    ......      ....                          ",
"                                  ....                        ",
"                                  ....                        ",
"                              ..    ..                        ",
"                              ..    ..                        ",
"                                ....                          ",
"                                ....                          "};
