/* XPM */
static char * char_fly3_left_xpm[] = {
"124 68 5 1",
" 	c #1EFA48",
".	c #432B4F",
"+	c #AB44E3",
"@	c #ECE4F2",
"#	c #82468F",
"                                                                                                                            ",
"                                                                                                                            ",
"                                                                                                                            ",
"                                                                                                                            ",
"                                                                                                                            ",
"                                                                                                                            ",
"                                                                                                                            ",
"                                                                                                                            ",
"                                                                                                                            ",
"                                                                                                                            ",
"                                                                                                                            ",
"                                                                                                                            ",
"                                                                                                                            ",
"                                                                                                                            ",
"                                                                                                                            ",
"                                                                                                                            ",
"                                                                                                                            ",
"                                                                                                                            ",
"                                                                                                                            ",
"                                                                                                                            ",
"                                                                                                                            ",
"                                                                                                                            ",
"                                                                                                                            ",
"                                                                                                                            ",
"                    ................                                                                                        ",
"                    ................                                                                                        ",
"                    ................                                                                                        ",
"                    ................                                                                                        ",
"                ............++++++++....                ............................................                        ",
"                ............++++++++....                ............................................                        ",
"                ............++++++++....                ............................................                        ",
"                ............++++++++....                ............................................                        ",
"            ....++++....@@@@....++++++++....    ........############################################........                ",
"            ....++++....@@@@....++++++++....    ........############################################........                ",
"            ....++++....@@@@....++++++++....    ........############################################........                ",
"            ....++++....@@@@....++++++++....    ........############################################........                ",
"    ........++++++++....@@@@++++++++++++............################################................                        ",
"    ........++++++++....@@@@++++++++++++............################################................                        ",
"    ........++++++++....@@@@++++++++++++............################################................                        ",
"    ........++++++++....@@@@++++++++++++............################################................                        ",
"....############++++++++++++++++++++++++++++....++++....####################........                            ............",
"....############++++++++++++++++++++++++++++....++++....####################........                            ............",
"....############++++++++++++++++++++++++++++....++++....####################........                            ............",
"....############++++++++++++++++++++++++++++....++++....####################........                            ............",
"    ....########++++++++++++++++....++++++++....++++++++++++++++++++............................................            ",
"    ....########++++++++++++++++....++++++++....++++++++++++++++++++............................................            ",
"    ....########++++++++++++++++....++++++++....++++++++++++++++++++............................................            ",
"    ....########++++++++++++++++....++++++++....++++++++++++++++++++............................................            ",
"        ............................++++++++++++++++++++++++++++++++++++++++........                                        ",
"        ............................++++++++++++++++++++++++++++++++++++++++........                                        ",
"        ............................++++++++++++++++++++++++++++++++++++++++........                                        ",
"        ............................++++++++++++++++++++++++++++++++++++++++........                                        ",
"                                    ........++++++++++++++++++++++++........                                                ",
"                                    ........++++++++++++++++++++++++........                                                ",
"                                    ........++++++++++++++++++++++++........                                                ",
"                                    ........++++++++++++++++++++++++........                                                ",
"                                            ........................                                                        ",
"                                            ........................                                                        ",
"                                            ........................                                                        ",
"                                            ........................                                                        ",
"                                                    ............                                                            ",
"                                                    ............                                                            ",
"                                                    ............                                                            ",
"                                                    ............                                                            ",
"                                                                ....                                                        ",
"                                                                ....                                                        ",
"                                                                ....                                                        ",
"                                                                ....                                                        "};
