/* XPM */
static char * char_fly2_xpm[] = {
"62 34 5 1",
" 	c #1EFA48",
".	c #432B4F",
"+	c #AB44E3",
"@	c #ECE4F2",
"#	c #82468F",
"                                                              ",
"                                                              ",
"                                                              ",
"                                                              ",
"                                                              ",
"                                                              ",
"                                            ........          ",
"                                            ........          ",
"                                          ..++++......        ",
"                                          ..++++......        ",
"                                        ..++++..@@..++..      ",
"                                        ..++++..@@..++..      ",
"                    ......................++++++@@..++++....  ",
"                    ......................++++++@@..++++....  ",
"          ..........++++++..##########..++++++++++++++######..",
"          ..........++++++..##########..++++++++++++++######..",
"      ....          ....++..##########..++++..++++++++####..  ",
"      ....          ....++..##########..++++..++++++++####..  ",
"    ..                  ..##############++++..............    ",
"    ..                  ..##############++++..............    ",
"  ..                  ..##############......                  ",
"  ..                  ..##############......                  ",
"                    ..################..                      ",
"                    ..################..                      ",
"                  ..##################..                      ",
"                  ..##################..                      ",
"              ....##################..                        ",
"              ....##################..                        ",
"            ..####################..                          ",
"            ..####################..                          ",
"        ....################......                            ",
"        ....################......                            ",
"            ................                                  ",
"            ................                                  "};
