/* XPM */
static char * diamond_xpm[] = {
"64 64 10 1",
" 	c None",
".	c #181425",
"+	c #3A4466",
"@	c #262B44",
"#	c #000000",
"$	c #FFFFFF",
"%	c #99D45F",
"&	c #46B05A",
"*	c #308C72",
"=	c #1E6962",
"                                                                ",
" ........++++++@......................++++++@@................. ",
" ........++++++@......................++++++@@................. ",
" ++....++@@@@@@@@@....++++++@@....++++@@@@@@@@@....++++++@@.... ",
" ++....++@@@@@@@@@....++++++@@....++++@@@@@@@@@....++++++@@.... ",
" @@....++@@@@@@@@@..++@@@@@@@@....@@++@@@@@@@@@..++@@@@@@@@.... ",
" @@....++@@@@@@@@@..++@@@@@@@@....@@++@@@@@@@@@..++@@@@@@@@.... ",
" @@++....@@@@@@@....++@@@@@@....++@@@@@@@@@@@@...++@@@@@@....++ ",
" @@++....@@@@@@@....++@@@@@@....++@@@@@@@@@@@@...++@@@@@@....++ ",
" @@@@@@....@@@@................++@####@@@@@@@..............++@@ ",
" @@@@@@....@@@@................++#$$$#@@@@@@@..............++@@ ",
" ..@@@@.........+++++++@@......+#$$$$%#@@......++++@@......++@@ ",
" ..@@@@.........+++++++@@......#$%%%%$#@@......++++@@......++@@ ",
" ..@@@@........+@@@@@@@@@@@...#$%%%%%$%#.....++@@@@@@@@....@@@@ ",
" ..@@@@........+@@@@@@@@@@@..#%%%%%%%$$#.....++@@@@@@@@....@@@@ ",
" ..@@........++@@@@@@@@@@@@.#%%%%%%%%$$%#..++@@@@@@@@@@......@@ ",
" ............++@@@@@@@@@@..#%$%%%%%%%$$$#..++@@@@@@@@.......... ",
" ............++@@@@@@@@@@..#%$$%%%%%%$$$%#.++@@@@@@@@.......... ",
" ..++++@@......@@@@@@@@...#%%%$$%%%%%$$$$#...@@@@@@........++++ ",
" ..++++@@......@@@@@@@@...#%%%$$$%%%$$$$$%#..@@@@@@........++++ ",
" ..@@@@@@@@..............#%%%$$%$$$$$%%$$$#..............++@@@@ ",
" ..@@@@@@@@..............#%%%$&&%$$$%%%$$$%#.............++@@@@ ",
" ++@@@@@@@@@@...........#%%%$$&&%%$%%%%%$$$#.............++@@@@ ",
" ++@@@@@@@@@@...........#%%%$&&&%%$%%%%%$$$%#............++@@@@ ",
" @@@@@@@@@@@@...+++++++#%%%$$&&&&%$%%%%%%$$$#..++++++@@..++@@@@ ",
" @@@@@@@@@@@@...+++++++#%%&$&&&&&%$%%%%%%$$$%#.++++++@@..++@@@@ ",
" @@@@@@@@@@@@..+@@@@@@#%%&$$&&&&&%$%%%%%%%$$$#+@@@@@@@@..@@@@@@ ",
" @@@@@@@@@@@@..+@@@@@@#%&&$&&&&&&&$%%%%%%%$$$%#@@@@@@@@..@@@@@@ ",
" ..@@@@@@@@....+@@@@@#%&&$$&&&&&&&$%%%%%%%%$$$#@@@@@@@@....@@@@ ",
" ..@@@@@@@@....+@@@@@#&&&$&&&&&&&*$%%%%%%%%$$$%#@@@@@@@....@@@@ ",
" ...............@@@@#&&$$$&&&&&&&*$%%%%%%%%%$$%#@@@@@.......... ",
" ...............@@@@#&$&&$$&&&&&&*$%%%%%%%%%$$%%#@@@@.......... ",
" ........++++++@...#$$&**&$$&&&&**$%%%%%%%%%%$%%#.............. ",
" ........++++++@...#%&****&$$&&**&$%%%%%%%%%%$%%#.............. ",
" ++....++@@@@@@@@@#%&*&&&**&$$&*&$$$%%%%%%%%%%&&#..++++++@@.... ",
" ++....++@@@@@@@@@#&*&&&&&&*&$$&$$*$$%%%%%%%%%&&#..++++++@@.... ",
" @@....++@@@@@@@@#*&&&&&&&&&&&$$$***$$%%%%%%%%&&#++@@@@@@@@.... ",
" @@....++@@@@@@@@#**&&&&&&&&&&&$*****$%%%%%%%%&&#++@@@@@@@@.... ",
" @@++....@@@@@@@.#***&&&&&&&&&&%******$%%%%%%%&&#++@@@@@@....++ ",
" @@++....@@@@@@@.#****&&&&&&&&&%*******$%%%%%$&&#++@@@@@@....++ ",
" @@@@@@....@@@@...#****&&&&&&&&%********$%%%$**&#..........++@@ ",
" @@@@@@....@@@@...#*****&&&&&&&%*********%%$****#..........++@@ ",
" ..@@@@.........+++#*****&*&&&*&**********%*****#++@@......++@@ ",
" ..@@@@.........+++#******&*&**&*=********&&&&&&#++@@......++@@ ",
" ..@@@@........+@@@@#****=*&***&*==*****&&****&&#@@@@@@....@@@@ ",
" ..@@@@........+@@@@#*****=*&**&*===**&&*******&#@@@@@@....@@@@ ",
" ..@@........++@@@@@@#****==*&*&*==*&&*********#@@@@@@@......@@ ",
" ............++@@@@@@#*****==*&&**&&**********#@@@@@@.......... ",
" ............++@@@@@@@#****===*&&&********==*#@@@@@@@.......... ",
" ..++++@@......@@@@@@@@#***==*&********====*#@@@@@@........++++ ",
" ..++++@@......@@@@@@@@.#**=*&******======*#.@@@@@@........++++ ",
" ..@@@@@@@@..............#**&****========*#..............++@@@@ ",
" ..@@@@@@@@...............#&**==========*#...............++@@@@ ",
" ++@@@@@@@@@@..............##############@@..............++@@@@ ",
" ++@@@@@@@@@@...............++@@@@++@@@@@@...............++@@@@ ",
" @@@@@@@@@@@@...++++++++@@..++@@@@@@@@@@@@....+++++++@@..++@@@@ ",
" @@@@@@@@@@@@...++++++++@@..++@@@@@@@@@@@@....+++++++@@..++@@@@ ",
" @@@@@@@@@@@@..+@@@@@@@@@@..@@@@@@@@@@@@@@..++@@@@@@@@@..@@@@@@ ",
" @@@@@@@@@@@@..+@@@@@@@@@@..@@@@@@@@@@@@@@..++@@@@@@@@@..@@@@@@ ",
" ..@@@@@@@@....+@@@@@@@@@@....@@@@..@@@@....++@@@@@@@@@....@@@@ ",
" ..@@@@@@@@....+@@@@@@@@@@....@@@@..@@@@....++@@@@@@@@@....@@@@ ",
" ...............@@@@@@@@......................@@@@@@@.......... ",
" ...............@@@@@@@@......................@@@@@@@.......... ",
"                                                                "};
