/* XPM */
static char * portail_xpm[] = {
"64 64 52 1",
" 	c #181425",
".	c #3A4466",
"+	c #262B44",
"@	c #E15861",
"#	c #E05761",
"$	c #E06766",
"%	c #E96463",
"&	c #E86163",
"*	c #E26B67",
"=	c #E67268",
"-	c #F1826B",
";	c #F2896C",
">	c #EF846B",
",	c #F2876C",
"'	c #EB6D66",
")	c #F99F72",
"!	c #FDAF76",
"~	c #FBA874",
"{	c #FAA473",
"]	c #F79770",
"^	c #F5926F",
"/	c #FEC37D",
"(	c #FAA674",
"_	c #FFB679",
":	c #FDD784",
"<	c #FDE288",
"[	c #FECB80",
"}	c #FCEB8B",
"|	c #FDDF87",
"1	c #FCEE8C",
"2	c #FEC57E",
"3	c #E87769",
"4	c #EA7B6A",
"5	c #EF7C69",
"6	c #ED7367",
"7	c #FEB377",
"8	c #FDD583",
"9	c #F07E6A",
"0	c #FECD81",
"a	c #FFBE7B",
"b	c #EB6B65",
"c	c #E16967",
"d	c #D65463",
"e	c #D65663",
"f	c #303754",
"g	c #394364",
"h	c #F48F6D",
"i	c #1F2035",
"j	c #22253B",
"k	c #FCAD76",
"l	c #FFB879",
"m	c #F6946F",
"        ......+          @@##$$$%%&$$##.....++                  ",
"        ......+          @@##$$$%%&$$##.....++                  ",
"..    ..++++++++++  ##**=--;;->>--,,,,,=**##+++     ......++    ",
"..    ..+++++++++##';;))!~~{{]  ^^{!!//!));;'##     ......++    ",
"++    ..+++++++++##';;))!~~{{]  ^^{!!//!));;'##   ..++++++++    ",
"++    ..+++++@@'',,(__::<[[~~^  ,,)__}}}::__(,,''@@.++++++++    ",
"++..    +++++@@'',,(__::<[[~~^  ,,)__}}}::__(,,''@@.++++++    ..",
"++..    ++++$>>))//|1111122]]3  ..>((||11111|//))>>$++++++    ..",
"++++++    ##4]]__}}11111}!!55 ..++&,,//111111}}__]]4##      ..++",
"++++++    ##4]]__}}11111}!!55 ..++&,,//111111}}__]]4##      ..++",
"  ++++  ##66,))77[[|11118((33 ..+++>>!!<1111|[[77)),66##    ..++",
"  ++++  ##66,))77[[|11118((33 ..+++>>!!<1111|[[77)),66##    ..++",
"  ++++ #''99;;;,,^^([[<<0((== +++++>>~~a<<[[(^^,,;;;99''#   ++++",
"  +++@@'--;;  .++%%>{{22/{{   ++++++ ((/22{{>%%+++++;;--'@@ ++++",
"  ++ @@'--;;..+++%%>{{22/{{     ++   ((/22{{>%%+++++;;--'@@   ++",
"     '',]];;..++++++;;{{());;b$$$$b;;))({{;;++++++++;;]],''     ",
"     '',]];;..++++++;;{{());;b$$$$b;;))({{;;++++++++;;]],''     ",
"   ##,,~~~,,..++++++++,,]]]99b&&&&b99]]],,..++++++++,,~~~,,##   ",
"  .##,,~~~,,  ++++++++,,]]]99b&&&&b99]]],,  ++++++++,,~~~,,##...",
"  .''((a22^^% ++++++cc>>;>>   ....  +>>;>>cc+++++++%^^22a((''...",
"  #;;__1||((>      #**33   @@deeeed@@+++33**#      >((||1__;;#++",
"  #;;__1||((>      #**33   @@deeeed@@+++33**#      >((||1__;;#++",
"..*))::11122)99  ccccc  #ee ..++++ff+ee#++ccccc  99)22111::))*++",
"..*))::11122)99  ccccc  #ee ..++++ff+ee#++ccccc  99)22111::))*++",
"++=!!}}111[[~]]-->>=..##e+  gg+++++++++e##  =>>--]](//<<1<<!!=++",
"##,//}}|//(()hh,,;;4..ee++  gg++++++++++ee  4;;,,hh]))!!2[[~~-@@",
"##,//}}|//(()hh,,;;4++ee++  ii++++++++++ee  4;;,,hh]))!!2[[~~-@@",
"$$,!!__(,,>>> .>>>>+@@++++  ii++++++++++++@@.>>>>++43355]~~{{;##",
"$$,!!__(,,>>> .>>>>+@@++++    jj++++++++  @@.>>>>++43355]~~{{;##",
"&&,{{))>&&    .bbbb+dd++++    jj++++++++  dd.bbbb+++++++3^^]]-$$",
"%%-^^,,        $$&&+ee++                  ee &&$$+++++       >$$",
"%%-^^,,        $$&&+ee++                  ee &&$$+++++       >$$",
"$$>     ......+$$&& ee                ....ee+&&$$        ,,^^-%%",
"$$>     ......+$$&& ee                ....ee+&&$$        ,,^^-%%",
"$$-]]^^3+++++++bbbb dd......++    ....++++dd+bbbb   ..&&>)){{,&&",
"##;{{~~]55334++>>>> @@......++    ....++++@@+>>>>  >>>,,(__!!,$$",
"##;{{~~]55334++>>>> @@++++++++    ++..++++@@+>>>> .>>>,,(__!!,$$",
"@@-~~[[2!!))]hh,,;;4..ee++++++    ++..++ee++4;;,,hh)((//|}}//,##",
"@@-~~[[2!!))]hh,,;;4..ee++++    ..++++++ee++4;;,,hh)((//|}}//,##",
"++=!!<<1<<//(]]-->>=..##e+++    ..+++++e##++=>>--]]~[[111}}!!=..",
"++*))::11122)99  ccccc  #ee   ..+++++ee#++ccccc  99)22111::))*++",
"++*))::11122)99  ccccc  #ee   ..+++++ee#++ccccc  99)22111::))*++",
"  #;;__1||((>  ....#**33   @@deeeed@@+  33**# .....>((||1__;;#++",
"  #;;__1||((>  ....#**33   @@deeeed@@+  33**# .....>((||1__;;#++",
"  +''((a22^^% .+++++cc>>;>>   ++++++ >>;>>cc..+++++%^^22a((''+++",
"  +##,,~~~,,  .+++++++,,]]]99b&&&&b99]]],,  ..++++++,,~~~,,##+++",
"  +##,,~~~,,..++++++++,,]]]99b&&&&b99]]],,..++++++++,,~~~,,## ++",
"     '',]];;..++++++;;{{());;b$$$$b;;))({{;;++++++++;;]],''     ",
"     '',]];;..++++++;;{{());;b$$$$b;;))({{;;++++++++;;]],''     ",
"     @@'--;;..+++%%>{{22/{{          {{/22{{>%%+++++;;--'@@     ",
"  ...@@'--;;  +++%%>{{22/{{   ....  +{{/22{{>%%+++++;;--'@@ ....",
"  ....+#''99;;;,,^^([[<<0((== .... 33{{0<<[[(^^,,;;;99''#   ....",
"  ++++++##66,))77[[|11118((33.++++ '')):1111|[[77)),66##  ..++++",
"  ++++++##66,))77[[|11118((33.++++ '')):1111|[[77)),66##  ..++++",
"..++++++++##4]]__}}11111}!!55.++++.''((|11111}}__]]4##    ..++++",
"..++++++++##4]]__}}11111}!!55.++++.''((|11111}}__]]4##    ..++++",
"++++++++++++$>>))//|11111[[^^*+++++99kk11111|//))>>$..++  ..++++",
"++++++++++++ @@'',,(__::<aa{{>++++3^^ll8::__(,,''@@...++  ..++++",
"++++++++++++ @@'',,(__::<aa{{>++++3^^ll8::__(,,''@@+++++  ++++++",
"++++++++++++  .++##';;))!kkmm;33++5hh))~));;'##+++++++++  ++++++",
"  ++++++++    .++##';;))!kkmm;33++5hh))~));;'##+++++++++    ++++",
"  ++++++++    .+++++##**=,,>>=''++'4455=**##..++++++++++    ++++",
"               +++++++++ #######@@@@@@@       ++++++++          ",
"               +++++++++ #######@@@@@@@       ++++++++          "};
