/* XPM */
static char * portail_xpm[] = {
"128 128 46 1",
" 	c #1EFA48",
".	c #E15861",
"+	c #E05761",
"@	c #E06766",
"#	c #E96463",
"$	c #E86163",
"%	c #E26B67",
"&	c #E67268",
"*	c #F1826B",
"=	c #F2896C",
"-	c #EF846B",
";	c #F2876C",
">	c #EB6D66",
",	c #F99F72",
"'	c #FDAF76",
")	c #FBA874",
"!	c #FAA473",
"~	c #F79770",
"{	c #F5926F",
"]	c #FEC37D",
"^	c #FAA674",
"/	c #FFB679",
"(	c #FDD784",
"_	c #FDE288",
":	c #FECB80",
"<	c #FCEB8B",
"[	c #FDDF87",
"}	c #FCEE8C",
"|	c #FEC57E",
"1	c #E87769",
"2	c #EA7B6A",
"3	c #EF7C69",
"4	c #ED7367",
"5	c #FEB377",
"6	c #FDD583",
"7	c #F07E6A",
"8	c #FECD81",
"9	c #FFBE7B",
"0	c #EB6B65",
"a	c #E16967",
"b	c #D65463",
"c	c #D65663",
"d	c #F48F6D",
"e	c #FCAD76",
"f	c #FFB879",
"g	c #F6946F",
"                                                  ....++++@@@@@@####$$@@@@++++                                                  ",
"                                                  ....++++@@@@@@####$$@@@@++++                                                  ",
"                                                  ....++++@@@@@@####$$@@@@++++                                                  ",
"                                                  ....++++@@@@@@####$$@@@@++++                                                  ",
"                                        ++++%%%%&&****====**----****;;;;;;;;;;&&%%%%++++                                        ",
"                                        ++++%%%%&&****====**----****;;;;;;;;;;&&%%%%++++                                        ",
"                                  ++++>>====,,,,''))))!!!!~~    {{{{!!'''']]]]'',,,,====>>++++                                  ",
"                                  ++++>>====,,,,''))))!!!!~~    {{{{!!'''']]]]'',,,,====>>++++                                  ",
"                                  ++++>>====,,,,''))))!!!!~~    {{{{!!'''']]]]'',,,,====>>++++                                  ",
"                                  ++++>>====,,,,''))))!!!!~~    {{{{!!'''']]]]'',,,,====>>++++                                  ",
"                          ....>>>>;;;;^^////((((__::::)))){{    ;;;;,,////<<<<<<((((////^^;;;;>>>>....                          ",
"                          ....>>>>;;;;^^////((((__::::)))){{    ;;;;,,////<<<<<<((((////^^;;;;>>>>....                          ",
"                          ....>>>>;;;;^^////((((__::::)))){{    ;;;;,,////<<<<<<((((////^^;;;;>>>>....                          ",
"                          ....>>>>;;;;^^////((((__::::)))){{    ;;;;,,////<<<<<<((((////^^;;;;>>>>....                          ",
"                        @@----,,,,]]]][[}}}}}}}}}}||||~~~~11        --^^^^[[[[}}}}}}}}}}[[]]]],,,,----@@                        ",
"                        @@----,,,,]]]][[}}}}}}}}}}||||~~~~11        --^^^^[[[[}}}}}}}}}}[[]]]],,,,----@@                        ",
"                    ++++22~~~~////<<<<}}}}}}}}}}<<''''3333          $$;;;;]]]]}}}}}}}}}}}}<<<<////~~~~22++++                    ",
"                    ++++22~~~~////<<<<}}}}}}}}}}<<''''3333          $$;;;;]]]]}}}}}}}}}}}}<<<<////~~~~22++++                    ",
"                    ++++22~~~~////<<<<}}}}}}}}}}<<''''3333          $$;;;;]]]]}}}}}}}}}}}}<<<<////~~~~22++++                    ",
"                    ++++22~~~~////<<<<}}}}}}}}}}<<''''3333          $$;;;;]]]]}}}}}}}}}}}}<<<<////~~~~22++++                    ",
"                ++++4444;;,,,,5555::::[[}}}}}}}}66^^^^1111            ----''''__}}}}}}}}[[::::5555,,,,;;4444++++                ",
"                ++++4444;;,,,,5555::::[[}}}}}}}}66^^^^1111            ----''''__}}}}}}}}[[::::5555,,,,;;4444++++                ",
"                ++++4444;;,,,,5555::::[[}}}}}}}}66^^^^1111            ----''''__}}}}}}}}[[::::5555,,,,;;4444++++                ",
"                ++++4444;;,,,,5555::::[[}}}}}}}}66^^^^1111            ----''''__}}}}}}}}[[::::5555,,,,;;4444++++                ",
"              ++>>>>7777======;;;;{{{{^^::::____88^^^^&&&&            ----))))99____::::^^{{{{;;;;======7777>>>>++              ",
"              ++>>>>7777======;;;;{{{{^^::::____88^^^^&&&&            ----))))99____::::^^{{{{;;;;======7777>>>>++              ",
"          ....>>****====          ####--!!!!||||]]!!!!                    ^^^^]]||||!!!!--####          ====****>>....          ",
"          ....>>****====          ####--!!!!||||]]!!!!                    ^^^^]]||||!!!!--####          ====****>>....          ",
"          ....>>****====          ####--!!!!||||]]!!!!                    ^^^^]]||||!!!!--####          ====****>>....          ",
"          ....>>****====          ####--!!!!||||]]!!!!                    ^^^^]]||||!!!!--####          ====****>>....          ",
"          >>>>;;~~~~====                ====!!!!^^,,,,====00@@@@@@@@00====,,,,^^!!!!====                ====~~~~;;>>>>          ",
"          >>>>;;~~~~====                ====!!!!^^,,,,====00@@@@@@@@00====,,,,^^!!!!====                ====~~~~;;>>>>          ",
"          >>>>;;~~~~====                ====!!!!^^,,,,====00@@@@@@@@00====,,,,^^!!!!====                ====~~~~;;>>>>          ",
"          >>>>;;~~~~====                ====!!!!^^,,,,====00@@@@@@@@00====,,,,^^!!!!====                ====~~~~;;>>>>          ",
"      ++++;;;;))))));;;;                    ;;;;~~~~~~777700$$$$$$$$007777~~~~~~;;;;                    ;;;;))))));;;;++++      ",
"      ++++;;;;))))));;;;                    ;;;;~~~~~~777700$$$$$$$$007777~~~~~~;;;;                    ;;;;))))));;;;++++      ",
"      ++++;;;;))))));;;;                    ;;;;~~~~~~777700$$$$$$$$007777~~~~~~;;;;                    ;;;;))))));;;;++++      ",
"      ++++;;;;))))));;;;                    ;;;;~~~~~~777700$$$$$$$$007777~~~~~~;;;;                    ;;;;))))));;;;++++      ",
"      >>>>^^^^99||||{{{{##              aaaa----==----                    ----==----aaaa              ##{{{{||||99^^^^>>>>      ",
"      >>>>^^^^99||||{{{{##              aaaa----==----                    ----==----aaaa              ##{{{{||||99^^^^>>>>      ",
"    ++====////}}[[[[^^^^--            ++%%%%1111      ....bbccccccccbb....      1111%%%%++            --^^^^[[[[}}////====++    ",
"    ++====////}}[[[[^^^^--            ++%%%%1111      ....bbccccccccbb....      1111%%%%++            --^^^^[[[[}}////====++    ",
"    ++====////}}[[[[^^^^--            ++%%%%1111      ....bbccccccccbb....      1111%%%%++            --^^^^[[[[}}////====++    ",
"    ++====////}}[[[[^^^^--            ++%%%%1111      ....bbccccccccbb....      1111%%%%++            --^^^^[[[[}}////====++    ",
"    %%,,,,((((}}}}}}||||,,7777    aaaaaaaaaa    ++cccc                    cccc++    aaaaaaaaaa    7777,,||||}}}}}}((((,,,,%%    ",
"    %%,,,,((((}}}}}}||||,,7777    aaaaaaaaaa    ++cccc                    cccc++    aaaaaaaaaa    7777,,||||}}}}}}((((,,,,%%    ",
"    %%,,,,((((}}}}}}||||,,7777    aaaaaaaaaa    ++cccc                    cccc++    aaaaaaaaaa    7777,,||||}}}}}}((((,,,,%%    ",
"    %%,,,,((((}}}}}}||||,,7777    aaaaaaaaaa    ++cccc                    cccc++    aaaaaaaaaa    7777,,||||}}}}}}((((,,,,%%    ",
"    &&''''<<<<}}}}}}::::))~~~~****----&&    ++++cc                            cc++++    &&----****~~~~^^]]]]____}}____''''&&    ",
"    &&''''<<<<}}}}}}::::))~~~~****----&&    ++++cc                            cc++++    &&----****~~~~^^]]]]____}}____''''&&    ",
"++++;;]]]]<<<<[[]]]]^^^^,,dddd;;;;====22    cccc                                cccc    22====;;;;dddd~~,,,,''''||::::))))**....",
"++++;;]]]]<<<<[[]]]]^^^^,,dddd;;;;====22    cccc                                cccc    22====;;;;dddd~~,,,,''''||::::))))**....",
"++++;;]]]]<<<<[[]]]]^^^^,,dddd;;;;====22    cccc                                cccc    22====;;;;dddd~~,,,,''''||::::))))**....",
"++++;;]]]]<<<<[[]]]]^^^^,,dddd;;;;====22    cccc                                cccc    22====;;;;dddd~~,,,,''''||::::))))**....",
"@@@@;;''''////^^;;;;------    --------  ....                                        ....  --------    2211113333~~))))!!!!==++++",
"@@@@;;''''////^^;;;;------    --------  ....                                        ....  --------    2211113333~~))))!!!!==++++",
"@@@@;;''''////^^;;;;------    --------  ....                                        ....  --------    2211113333~~))))!!!!==++++",
"@@@@;;''''////^^;;;;------    --------  ....                                        ....  --------    2211113333~~))))!!!!==++++",
"$$$$;;!!!!,,,,--$$$$          00000000  bbbb                                        bbbb  00000000              11{{{{~~~~**@@@@",
"$$$$;;!!!!,,,,--$$$$          00000000  bbbb                                        bbbb  00000000              11{{{{~~~~**@@@@",
"####**{{{{;;;;                @@@@$$$$  cccc                                        cccc  $$$$@@@@                        --@@@@",
"####**{{{{;;;;                @@@@$$$$  cccc                                        cccc  $$$$@@@@                        --@@@@",
"####**{{{{;;;;                @@@@$$$$  cccc                                        cccc  $$$$@@@@                        --@@@@",
"####**{{{{;;;;                @@@@$$$$  cccc                                        cccc  $$$$@@@@                        --@@@@",
"@@@@--                        @@@@$$$$  cccc                                        cccc  $$$$@@@@                ;;;;{{{{**####",
"@@@@--                        @@@@$$$$  cccc                                        cccc  $$$$@@@@                ;;;;{{{{**####",
"@@@@--                        @@@@$$$$  cccc                                        cccc  $$$$@@@@                ;;;;{{{{**####",
"@@@@--                        @@@@$$$$  cccc                                        cccc  $$$$@@@@                ;;;;{{{{**####",
"@@@@**~~~~{{{{11              00000000  bbbb                                        bbbb  00000000          $$$$--,,,,!!!!;;$$$$",
"@@@@**~~~~{{{{11              00000000  bbbb                                        bbbb  00000000          $$$$--,,,,!!!!;;$$$$",
"++++==!!!!))))~~3333111122    --------  ....                                        ....  --------    ------;;;;^^////'''';;@@@@",
"++++==!!!!))))~~3333111122    --------  ....                                        ....  --------    ------;;;;^^////'''';;@@@@",
"++++==!!!!))))~~3333111122    --------  ....                                        ....  --------    ------;;;;^^////'''';;@@@@",
"++++==!!!!))))~~3333111122    --------  ....                                        ....  --------    ------;;;;^^////'''';;@@@@",
"....**))))::::||'''',,,,~~dddd;;;;====22    cccc                                cccc    22====;;;;dddd,,^^^^]]]][[<<<<]]]];;++++",
"....**))))::::||'''',,,,~~dddd;;;;====22    cccc                                cccc    22====;;;;dddd,,^^^^]]]][[<<<<]]]];;++++",
"....**))))::::||'''',,,,~~dddd;;;;====22    cccc                                cccc    22====;;;;dddd,,^^^^]]]][[<<<<]]]];;++++",
"....**))))::::||'''',,,,~~dddd;;;;====22    cccc                                cccc    22====;;;;dddd,,^^^^]]]][[<<<<]]]];;++++",
"    &&''''____}}____]]]]^^~~~~****----&&    ++++cc                            cc++++    &&----****~~~~))::::}}}}}}<<<<''''&&    ",
"    &&''''____}}____]]]]^^~~~~****----&&    ++++cc                            cc++++    &&----****~~~~))::::}}}}}}<<<<''''&&    ",
"    %%,,,,((((}}}}}}||||,,7777    aaaaaaaaaa    ++cccc                    cccc++    aaaaaaaaaa    7777,,||||}}}}}}((((,,,,%%    ",
"    %%,,,,((((}}}}}}||||,,7777    aaaaaaaaaa    ++cccc                    cccc++    aaaaaaaaaa    7777,,||||}}}}}}((((,,,,%%    ",
"    %%,,,,((((}}}}}}||||,,7777    aaaaaaaaaa    ++cccc                    cccc++    aaaaaaaaaa    7777,,||||}}}}}}((((,,,,%%    ",
"    %%,,,,((((}}}}}}||||,,7777    aaaaaaaaaa    ++cccc                    cccc++    aaaaaaaaaa    7777,,||||}}}}}}((((,,,,%%    ",
"    ++====////}}[[[[^^^^--            ++%%%%1111      ....bbccccccccbb....      1111%%%%++            --^^^^[[[[}}////====++    ",
"    ++====////}}[[[[^^^^--            ++%%%%1111      ....bbccccccccbb....      1111%%%%++            --^^^^[[[[}}////====++    ",
"    ++====////}}[[[[^^^^--            ++%%%%1111      ....bbccccccccbb....      1111%%%%++            --^^^^[[[[}}////====++    ",
"    ++====////}}[[[[^^^^--            ++%%%%1111      ....bbccccccccbb....      1111%%%%++            --^^^^[[[[}}////====++    ",
"      >>>>^^^^99||||{{{{##              aaaa----==----                    ----==----aaaa              ##{{{{||||99^^^^>>>>      ",
"      >>>>^^^^99||||{{{{##              aaaa----==----                    ----==----aaaa              ##{{{{||||99^^^^>>>>      ",
"      ++++;;;;))))));;;;                    ;;;;~~~~~~777700$$$$$$$$007777~~~~~~;;;;                    ;;;;))))));;;;++++      ",
"      ++++;;;;))))));;;;                    ;;;;~~~~~~777700$$$$$$$$007777~~~~~~;;;;                    ;;;;))))));;;;++++      ",
"      ++++;;;;))))));;;;                    ;;;;~~~~~~777700$$$$$$$$007777~~~~~~;;;;                    ;;;;))))));;;;++++      ",
"      ++++;;;;))))));;;;                    ;;;;~~~~~~777700$$$$$$$$007777~~~~~~;;;;                    ;;;;))))));;;;++++      ",
"          >>>>;;~~~~====                ====!!!!^^,,,,====00@@@@@@@@00====,,,,^^!!!!====                ====~~~~;;>>>>          ",
"          >>>>;;~~~~====                ====!!!!^^,,,,====00@@@@@@@@00====,,,,^^!!!!====                ====~~~~;;>>>>          ",
"          >>>>;;~~~~====                ====!!!!^^,,,,====00@@@@@@@@00====,,,,^^!!!!====                ====~~~~;;>>>>          ",
"          >>>>;;~~~~====                ====!!!!^^,,,,====00@@@@@@@@00====,,,,^^!!!!====                ====~~~~;;>>>>          ",
"          ....>>****====          ####--!!!!||||]]!!!!                    !!!!]]||||!!!!--####          ====****>>....          ",
"          ....>>****====          ####--!!!!||||]]!!!!                    !!!!]]||||!!!!--####          ====****>>....          ",
"          ....>>****====          ####--!!!!||||]]!!!!                    !!!!]]||||!!!!--####          ====****>>....          ",
"          ....>>****====          ####--!!!!||||]]!!!!                    !!!!]]||||!!!!--####          ====****>>....          ",
"              ++>>>>7777======;;;;{{{{^^::::____88^^^^&&&&            1111!!!!88____::::^^{{{{;;;;======7777>>>>++              ",
"              ++>>>>7777======;;;;{{{{^^::::____88^^^^&&&&            1111!!!!88____::::^^{{{{;;;;======7777>>>>++              ",
"                ++++4444;;,,,,5555::::[[}}}}}}}}66^^^^1111            >>>>,,,,((}}}}}}}}[[::::5555,,,,;;4444++++                ",
"                ++++4444;;,,,,5555::::[[}}}}}}}}66^^^^1111            >>>>,,,,((}}}}}}}}[[::::5555,,,,;;4444++++                ",
"                ++++4444;;,,,,5555::::[[}}}}}}}}66^^^^1111            >>>>,,,,((}}}}}}}}[[::::5555,,,,;;4444++++                ",
"                ++++4444;;,,,,5555::::[[}}}}}}}}66^^^^1111            >>>>,,,,((}}}}}}}}[[::::5555,,,,;;4444++++                ",
"                    ++++22~~~~////<<<<}}}}}}}}}}<<''''3333            >>>>^^^^[[}}}}}}}}}}<<<<////~~~~22++++                    ",
"                    ++++22~~~~////<<<<}}}}}}}}}}<<''''3333            >>>>^^^^[[}}}}}}}}}}<<<<////~~~~22++++                    ",
"                    ++++22~~~~////<<<<}}}}}}}}}}<<''''3333            >>>>^^^^[[}}}}}}}}}}<<<<////~~~~22++++                    ",
"                    ++++22~~~~////<<<<}}}}}}}}}}<<''''3333            >>>>^^^^[[}}}}}}}}}}<<<<////~~~~22++++                    ",
"                        @@----,,,,]]]][[}}}}}}}}}}::::{{{{%%          7777eeee}}}}}}}}}}[[]]]],,,,----@@                        ",
"                        @@----,,,,]]]][[}}}}}}}}}}::::{{{{%%          7777eeee}}}}}}}}}}[[]]]],,,,----@@                        ",
"                          ....>>>>;;;;^^////((((__9999!!!!--        11{{{{ffff66((((////^^;;;;>>>>....                          ",
"                          ....>>>>;;;;^^////((((__9999!!!!--        11{{{{ffff66((((////^^;;;;>>>>....                          ",
"                          ....>>>>;;;;^^////((((__9999!!!!--        11{{{{ffff66((((////^^;;;;>>>>....                          ",
"                          ....>>>>;;;;^^////((((__9999!!!!--        11{{{{ffff66((((////^^;;;;>>>>....                          ",
"                                  ++++>>====,,,,''eeeegggg==1111    33dddd,,,,)),,,,====>>++++                                  ",
"                                  ++++>>====,,,,''eeeegggg==1111    33dddd,,,,)),,,,====>>++++                                  ",
"                                  ++++>>====,,,,''eeeegggg==1111    33dddd,,,,)),,,,====>>++++                                  ",
"                                  ++++>>====,,,,''eeeegggg==1111    33dddd,,,,)),,,,====>>++++                                  ",
"                                        ++++%%%%&&;;;;----&&>>>>    >>22223333&&%%%%++++                                        ",
"                                        ++++%%%%&&;;;;----&&>>>>    >>22223333&&%%%%++++                                        ",
"                                                  ++++++++++++++..............                                                  ",
"                                                  ++++++++++++++..............                                                  ",
"                                                  ++++++++++++++..............                                                  ",
"                                                  ++++++++++++++..............                                                  "};
