/* XPM */
static char * sand_xpm[] = {
"128 128 4 1",
" 	c #EAD4AA",
".	c #D1A280",
"+	c #E6B786",
"@	c #E9C29D",
"    ....    ++++@@@@++++                ....@@@@++++                ....    ++++@@@@++++                ....@@@@++++            ",
"    ....    ++++@@@@++++                ....@@@@++++                ....    ++++@@@@++++                ....@@@@++++            ",
"    ....    ++++@@@@++++                ....@@@@++++                ....    ++++@@@@++++                ....@@@@++++            ",
"    ....    ++++@@@@++++                ....@@@@++++                ....    ++++@@@@++++                ....@@@@++++            ",
"....    ++++@@@@....                ....@@@@++++        ............    ++++@@@@....                ....@@@@++++        ........",
"....    ++++@@@@....                ....@@@@++++        ............    ++++@@@@....                ....@@@@++++        ........",
"....    ++++@@@@....                ....@@@@++++        ............    ++++@@@@....                ....@@@@++++        ........",
"....    ++++@@@@....                ....@@@@++++        ............    ++++@@@@....                ....@@@@++++        ........",
"++++++++@@@@@@@@        ++++++++++++@@@@@@@@        ....@@@@@@@@++++++++@@@@@@@@        ++++++++++++@@@@@@@@        ....@@@@@@@@",
"++++++++@@@@@@@@        ++++++++++++@@@@@@@@        ....@@@@@@@@++++++++@@@@@@@@        ++++++++++++@@@@@@@@        ....@@@@@@@@",
"++++++++@@@@@@@@        ++++++++++++@@@@@@@@        ....@@@@@@@@++++++++@@@@@@@@        ++++++++++++@@@@@@@@        ....@@@@@@@@",
"++++++++@@@@@@@@        ++++++++++++@@@@@@@@        ....@@@@@@@@++++++++@@@@@@@@        ++++++++++++@@@@@@@@        ....@@@@@@@@",
"    @@@@....        ++++....@@@@@@@@@@@@    ....++++@@@@            @@@@....        ++++....@@@@@@@@@@@@    ....++++@@@@        ",
"    @@@@....        ++++....@@@@@@@@@@@@    ....++++@@@@            @@@@....        ++++....@@@@@@@@@@@@    ....++++@@@@        ",
"    @@@@....        ++++....@@@@@@@@@@@@    ....++++@@@@            @@@@....        ++++....@@@@@@@@@@@@    ....++++@@@@        ",
"    @@@@....        ++++....@@@@@@@@@@@@    ....++++@@@@            @@@@....        ++++....@@@@@@@@@@@@    ....++++@@@@        ",
"    ....        ++++....@@@@            ++++@@@@@@@@                ....        ++++....@@@@            ++++@@@@@@@@            ",
"    ....        ++++....@@@@            ++++@@@@@@@@                ....        ++++....@@@@            ++++@@@@@@@@            ",
"    ....        ++++....@@@@            ++++@@@@@@@@                ....        ++++....@@@@            ++++@@@@@@@@            ",
"    ....        ++++....@@@@            ++++@@@@@@@@                ....        ++++....@@@@            ++++@@@@@@@@            ",
"....        ++++@@@@@@@@        ........@@@@            ............        ++++@@@@@@@@        ........@@@@            ........",
"....        ++++@@@@@@@@        ........@@@@            ............        ++++@@@@@@@@        ........@@@@            ........",
"....        ++++@@@@@@@@        ........@@@@            ............        ++++@@@@@@@@        ........@@@@            ........",
"....        ++++@@@@@@@@        ........@@@@            ............        ++++@@@@@@@@        ........@@@@            ........",
"    ++++++++@@@@            ++++@@@@@@@@        ........@@@@@@@@    ++++++++@@@@            ++++@@@@@@@@        ........@@@@@@@@",
"    ++++++++@@@@            ++++@@@@@@@@        ........@@@@@@@@    ++++++++@@@@            ++++@@@@@@@@        ........@@@@@@@@",
"    ++++++++@@@@            ++++@@@@@@@@        ........@@@@@@@@    ++++++++@@@@            ++++@@@@@@@@        ........@@@@@@@@",
"    ++++++++@@@@            ++++@@@@@@@@        ........@@@@@@@@    ++++++++@@@@            ++++@@@@@@@@        ........@@@@@@@@",
"++++++++@@@@            ++++                ....++++@@@@@@@@@@@@++++++++@@@@            ++++                ....++++@@@@@@@@@@@@",
"++++++++@@@@            ++++                ....++++@@@@@@@@@@@@++++++++@@@@            ++++                ....++++@@@@@@@@@@@@",
"++++++++@@@@            ++++                ....++++@@@@@@@@@@@@++++++++@@@@            ++++                ....++++@@@@@@@@@@@@",
"++++++++@@@@            ++++                ....++++@@@@@@@@@@@@++++++++@@@@            ++++                ....++++@@@@@@@@@@@@",
"@@@@@@@@    ++++....++++            ........@@@@@@@@@@@@++++++++@@@@@@@@    ++++....++++            ........@@@@@@@@@@@@++++++++",
"@@@@@@@@    ++++....++++            ........@@@@@@@@@@@@++++++++@@@@@@@@    ++++....++++            ........@@@@@@@@@@@@++++++++",
"@@@@@@@@    ++++....++++            ........@@@@@@@@@@@@++++++++@@@@@@@@    ++++....++++            ........@@@@@@@@@@@@++++++++",
"@@@@@@@@    ++++....++++            ........@@@@@@@@@@@@++++++++@@@@@@@@    ++++....++++            ........@@@@@@@@@@@@++++++++",
"        ++++++++@@@@            ....++++@@@@@@@@@@@@++++@@@@            ++++++++@@@@            ....++++@@@@@@@@@@@@++++@@@@    ",
"        ++++++++@@@@            ....++++@@@@@@@@@@@@++++@@@@            ++++++++@@@@            ....++++@@@@@@@@@@@@++++@@@@    ",
"        ++++++++@@@@            ....++++@@@@@@@@@@@@++++@@@@            ++++++++@@@@            ....++++@@@@@@@@@@@@++++@@@@    ",
"        ++++++++@@@@            ....++++@@@@@@@@@@@@++++@@@@            ++++++++@@@@            ....++++@@@@@@@@@@@@++++@@@@    ",
"        ++++@@@@        ........++++@@@@@@@@@@@@++++++++    @@@@        ++++@@@@        ........++++@@@@@@@@@@@@++++++++    @@@@",
"        ++++@@@@        ........++++@@@@@@@@@@@@++++++++    @@@@        ++++@@@@        ........++++@@@@@@@@@@@@++++++++    @@@@",
"        ++++@@@@        ........++++@@@@@@@@@@@@++++++++    @@@@        ++++@@@@        ........++++@@@@@@@@@@@@++++++++    @@@@",
"        ++++@@@@        ........++++@@@@@@@@@@@@++++++++    @@@@        ++++@@@@        ........++++@@@@@@@@@@@@++++++++    @@@@",
"@@@@....++++@@@@    ....++++@@@@@@@@@@@@@@@@++++++++    @@@@    @@@@....++++@@@@    ....++++@@@@@@@@@@@@@@@@++++++++    @@@@    ",
"@@@@....++++@@@@    ....++++@@@@@@@@@@@@@@@@++++++++    @@@@    @@@@....++++@@@@    ....++++@@@@@@@@@@@@@@@@++++++++    @@@@    ",
"@@@@....++++@@@@    ....++++@@@@@@@@@@@@@@@@++++++++    @@@@    @@@@....++++@@@@    ....++++@@@@@@@@@@@@@@@@++++++++    @@@@    ",
"@@@@....++++@@@@    ....++++@@@@@@@@@@@@@@@@++++++++    @@@@    @@@@....++++@@@@    ....++++@@@@@@@@@@@@@@@@++++++++    @@@@    ",
"....++++@@@@        ....@@@@@@@@++++++++++++                    ....++++@@@@        ....@@@@@@@@++++++++++++                    ",
"....++++@@@@        ....@@@@@@@@++++++++++++                    ....++++@@@@        ....@@@@@@@@++++++++++++                    ",
"....++++@@@@        ....@@@@@@@@++++++++++++                    ....++++@@@@        ....@@@@@@@@++++++++++++                    ",
"....++++@@@@        ....@@@@@@@@++++++++++++                    ....++++@@@@        ....@@@@@@@@++++++++++++                    ",
"@@@@@@@@    ........++++@@@@++++++++                    ........@@@@@@@@    ........++++@@@@++++++++                    ........",
"@@@@@@@@    ........++++@@@@++++++++                    ........@@@@@@@@    ........++++@@@@++++++++                    ........",
"@@@@@@@@    ........++++@@@@++++++++                    ........@@@@@@@@    ........++++@@@@++++++++                    ........",
"@@@@@@@@    ........++++@@@@++++++++                    ........@@@@@@@@    ........++++@@@@++++++++                    ........",
"@@@@    ....++++++++@@@@@@@@++++        @@@@    ........@@@@@@@@@@@@    ....++++++++@@@@@@@@++++        @@@@    ........@@@@@@@@",
"@@@@    ....++++++++@@@@@@@@++++        @@@@    ........@@@@@@@@@@@@    ....++++++++@@@@@@@@++++        @@@@    ........@@@@@@@@",
"@@@@    ....++++++++@@@@@@@@++++        @@@@    ........@@@@@@@@@@@@    ....++++++++@@@@@@@@++++        @@@@    ........@@@@@@@@",
"@@@@    ....++++++++@@@@@@@@++++        @@@@    ........@@@@@@@@@@@@    ....++++++++@@@@@@@@++++        @@@@    ........@@@@@@@@",
"        ....++++@@@@@@@@++++        @@@@    ....@@@@@@@@@@@@            ....++++@@@@@@@@++++        @@@@    ....@@@@@@@@@@@@    ",
"        ....++++@@@@@@@@++++        @@@@    ....@@@@@@@@@@@@            ....++++@@@@@@@@++++        @@@@    ....@@@@@@@@@@@@    ",
"        ....++++@@@@@@@@++++        @@@@    ....@@@@@@@@@@@@            ....++++@@@@@@@@++++        @@@@    ....@@@@@@@@@@@@    ",
"        ....++++@@@@@@@@++++        @@@@    ....@@@@@@@@@@@@            ....++++@@@@@@@@++++        @@@@    ....@@@@@@@@@@@@    ",
"    ....    ++++@@@@++++                ....@@@@++++                ....    ++++@@@@++++                ....@@@@++++            ",
"    ....    ++++@@@@++++                ....@@@@++++                ....    ++++@@@@++++                ....@@@@++++            ",
"    ....    ++++@@@@++++                ....@@@@++++                ....    ++++@@@@++++                ....@@@@++++            ",
"    ....    ++++@@@@++++                ....@@@@++++                ....    ++++@@@@++++                ....@@@@++++            ",
"....    ++++@@@@....                ....@@@@++++        ............    ++++@@@@....                ....@@@@++++        ........",
"....    ++++@@@@....                ....@@@@++++        ............    ++++@@@@....                ....@@@@++++        ........",
"....    ++++@@@@....                ....@@@@++++        ............    ++++@@@@....                ....@@@@++++        ........",
"....    ++++@@@@....                ....@@@@++++        ............    ++++@@@@....                ....@@@@++++        ........",
"++++++++@@@@@@@@        ++++++++++++@@@@@@@@        ....@@@@@@@@++++++++@@@@@@@@        ++++++++++++@@@@@@@@        ....@@@@@@@@",
"++++++++@@@@@@@@        ++++++++++++@@@@@@@@        ....@@@@@@@@++++++++@@@@@@@@        ++++++++++++@@@@@@@@        ....@@@@@@@@",
"++++++++@@@@@@@@        ++++++++++++@@@@@@@@        ....@@@@@@@@++++++++@@@@@@@@        ++++++++++++@@@@@@@@        ....@@@@@@@@",
"++++++++@@@@@@@@        ++++++++++++@@@@@@@@        ....@@@@@@@@++++++++@@@@@@@@        ++++++++++++@@@@@@@@        ....@@@@@@@@",
"    @@@@....        ++++....@@@@@@@@@@@@    ....++++@@@@            @@@@....        ++++....@@@@@@@@@@@@    ....++++@@@@        ",
"    @@@@....        ++++....@@@@@@@@@@@@    ....++++@@@@            @@@@....        ++++....@@@@@@@@@@@@    ....++++@@@@        ",
"    @@@@....        ++++....@@@@@@@@@@@@    ....++++@@@@            @@@@....        ++++....@@@@@@@@@@@@    ....++++@@@@        ",
"    @@@@....        ++++....@@@@@@@@@@@@    ....++++@@@@            @@@@....        ++++....@@@@@@@@@@@@    ....++++@@@@        ",
"    ....        ++++....@@@@            ++++@@@@@@@@                ....        ++++....@@@@            ++++@@@@@@@@            ",
"    ....        ++++....@@@@            ++++@@@@@@@@                ....        ++++....@@@@            ++++@@@@@@@@            ",
"    ....        ++++....@@@@            ++++@@@@@@@@                ....        ++++....@@@@            ++++@@@@@@@@            ",
"    ....        ++++....@@@@            ++++@@@@@@@@                ....        ++++....@@@@            ++++@@@@@@@@            ",
"....        ++++@@@@@@@@        ........@@@@            ............        ++++@@@@@@@@        ........@@@@            ........",
"....        ++++@@@@@@@@        ........@@@@            ............        ++++@@@@@@@@        ........@@@@            ........",
"....        ++++@@@@@@@@        ........@@@@            ............        ++++@@@@@@@@        ........@@@@            ........",
"....        ++++@@@@@@@@        ........@@@@            ............        ++++@@@@@@@@        ........@@@@            ........",
"    ++++++++@@@@            ++++@@@@@@@@        ........@@@@@@@@    ++++++++@@@@            ++++@@@@@@@@        ........@@@@@@@@",
"    ++++++++@@@@            ++++@@@@@@@@        ........@@@@@@@@    ++++++++@@@@            ++++@@@@@@@@        ........@@@@@@@@",
"    ++++++++@@@@            ++++@@@@@@@@        ........@@@@@@@@    ++++++++@@@@            ++++@@@@@@@@        ........@@@@@@@@",
"    ++++++++@@@@            ++++@@@@@@@@        ........@@@@@@@@    ++++++++@@@@            ++++@@@@@@@@        ........@@@@@@@@",
"++++++++@@@@            ++++                ....++++@@@@@@@@@@@@++++++++@@@@            ++++                ....++++@@@@@@@@@@@@",
"++++++++@@@@            ++++                ....++++@@@@@@@@@@@@++++++++@@@@            ++++                ....++++@@@@@@@@@@@@",
"++++++++@@@@            ++++                ....++++@@@@@@@@@@@@++++++++@@@@            ++++                ....++++@@@@@@@@@@@@",
"++++++++@@@@            ++++                ....++++@@@@@@@@@@@@++++++++@@@@            ++++                ....++++@@@@@@@@@@@@",
"@@@@@@@@    ++++....++++            ........@@@@@@@@@@@@++++++++@@@@@@@@    ++++....++++            ........@@@@@@@@@@@@++++++++",
"@@@@@@@@    ++++....++++            ........@@@@@@@@@@@@++++++++@@@@@@@@    ++++....++++            ........@@@@@@@@@@@@++++++++",
"@@@@@@@@    ++++....++++            ........@@@@@@@@@@@@++++++++@@@@@@@@    ++++....++++            ........@@@@@@@@@@@@++++++++",
"@@@@@@@@    ++++....++++            ........@@@@@@@@@@@@++++++++@@@@@@@@    ++++....++++            ........@@@@@@@@@@@@++++++++",
"        ++++++++@@@@            ....++++@@@@@@@@@@@@++++@@@@            ++++++++@@@@            ....++++@@@@@@@@@@@@++++@@@@    ",
"        ++++++++@@@@            ....++++@@@@@@@@@@@@++++@@@@            ++++++++@@@@            ....++++@@@@@@@@@@@@++++@@@@    ",
"        ++++++++@@@@            ....++++@@@@@@@@@@@@++++@@@@            ++++++++@@@@            ....++++@@@@@@@@@@@@++++@@@@    ",
"        ++++++++@@@@            ....++++@@@@@@@@@@@@++++@@@@            ++++++++@@@@            ....++++@@@@@@@@@@@@++++@@@@    ",
"        ++++@@@@        ........++++@@@@@@@@@@@@++++++++    @@@@        ++++@@@@        ........++++@@@@@@@@@@@@++++++++    @@@@",
"        ++++@@@@        ........++++@@@@@@@@@@@@++++++++    @@@@        ++++@@@@        ........++++@@@@@@@@@@@@++++++++    @@@@",
"        ++++@@@@        ........++++@@@@@@@@@@@@++++++++    @@@@        ++++@@@@        ........++++@@@@@@@@@@@@++++++++    @@@@",
"        ++++@@@@        ........++++@@@@@@@@@@@@++++++++    @@@@        ++++@@@@        ........++++@@@@@@@@@@@@++++++++    @@@@",
"@@@@....++++@@@@    ....++++@@@@@@@@@@@@@@@@++++++++    @@@@    @@@@....++++@@@@    ....++++@@@@@@@@@@@@@@@@++++++++    @@@@    ",
"@@@@....++++@@@@    ....++++@@@@@@@@@@@@@@@@++++++++    @@@@    @@@@....++++@@@@    ....++++@@@@@@@@@@@@@@@@++++++++    @@@@    ",
"@@@@....++++@@@@    ....++++@@@@@@@@@@@@@@@@++++++++    @@@@    @@@@....++++@@@@    ....++++@@@@@@@@@@@@@@@@++++++++    @@@@    ",
"@@@@....++++@@@@    ....++++@@@@@@@@@@@@@@@@++++++++    @@@@    @@@@....++++@@@@    ....++++@@@@@@@@@@@@@@@@++++++++    @@@@    ",
"....++++@@@@        ....@@@@@@@@++++++++++++                    ....++++@@@@        ....@@@@@@@@++++++++++++                    ",
"....++++@@@@        ....@@@@@@@@++++++++++++                    ....++++@@@@        ....@@@@@@@@++++++++++++                    ",
"....++++@@@@        ....@@@@@@@@++++++++++++                    ....++++@@@@        ....@@@@@@@@++++++++++++                    ",
"....++++@@@@        ....@@@@@@@@++++++++++++                    ....++++@@@@        ....@@@@@@@@++++++++++++                    ",
"@@@@@@@@    ........++++@@@@++++++++                    ........@@@@@@@@    ........++++@@@@++++++++                    ........",
"@@@@@@@@    ........++++@@@@++++++++                    ........@@@@@@@@    ........++++@@@@++++++++                    ........",
"@@@@@@@@    ........++++@@@@++++++++                    ........@@@@@@@@    ........++++@@@@++++++++                    ........",
"@@@@@@@@    ........++++@@@@++++++++                    ........@@@@@@@@    ........++++@@@@++++++++                    ........",
"@@@@    ....++++++++@@@@@@@@++++        @@@@    ........@@@@@@@@@@@@    ....++++++++@@@@@@@@++++        @@@@    ........@@@@@@@@",
"@@@@    ....++++++++@@@@@@@@++++        @@@@    ........@@@@@@@@@@@@    ....++++++++@@@@@@@@++++        @@@@    ........@@@@@@@@",
"@@@@    ....++++++++@@@@@@@@++++        @@@@    ........@@@@@@@@@@@@    ....++++++++@@@@@@@@++++        @@@@    ........@@@@@@@@",
"@@@@    ....++++++++@@@@@@@@++++        @@@@    ........@@@@@@@@@@@@    ....++++++++@@@@@@@@++++        @@@@    ........@@@@@@@@",
"        ....++++@@@@@@@@++++        @@@@    ....@@@@@@@@@@@@            ....++++@@@@@@@@++++        @@@@    ....@@@@@@@@@@@@    ",
"        ....++++@@@@@@@@++++        @@@@    ....@@@@@@@@@@@@            ....++++@@@@@@@@++++        @@@@    ....@@@@@@@@@@@@    ",
"        ....++++@@@@@@@@++++        @@@@    ....@@@@@@@@@@@@            ....++++@@@@@@@@++++        @@@@    ....@@@@@@@@@@@@    ",
"        ....++++@@@@@@@@++++        @@@@    ....@@@@@@@@@@@@            ....++++@@@@@@@@++++        @@@@    ....@@@@@@@@@@@@    "};
