/* XPM */
static char * sand_wall_xpm[] = {
"128 128 4 1",
" 	c #C29969",
".	c #A56742",
"+	c #3E2731",
"@	c #733E39",
"    ........++++++++@@@@@@@@++++    ............++++                ........++++++++@@@@@@@@++++    ............++++            ",
"    ........++++++++@@@@@@@@++++    ............++++                ........++++++++@@@@@@@@++++    ............++++            ",
"    ........++++++++@@@@@@@@++++    ............++++                ........++++++++@@@@@@@@++++    ............++++            ",
"    ........++++++++@@@@@@@@++++    ............++++                ........++++++++@@@@@@@@++++    ............++++            ",
"............++++++++++++++++++++............@@@@++++    ....................++++++++++++++++++++............@@@@++++    ........",
"............++++++++++++++++++++............@@@@++++    ....................++++++++++++++++++++............@@@@++++    ........",
"............++++++++++++++++++++............@@@@++++    ....................++++++++++++++++++++............@@@@++++    ........",
"............++++++++++++++++++++............@@@@++++    ....................++++++++++++++++++++............@@@@++++    ........",
"@@@@@@@@@@@@++++++++++++++++++++@@@@@@@@@@@@@@@@++++@@@@........@@@@@@@@@@@@++++++++++++++++++++@@@@@@@@@@@@@@@@++++@@@@........",
"@@@@@@@@@@@@++++++++++++++++++++@@@@@@@@@@@@@@@@++++@@@@........@@@@@@@@@@@@++++++++++++++++++++@@@@@@@@@@@@@@@@++++@@@@........",
"@@@@@@@@@@@@++++++++++++++++++++@@@@@@@@@@@@@@@@++++@@@@........@@@@@@@@@@@@++++++++++++++++++++@@@@@@@@@@@@@@@@++++@@@@........",
"@@@@@@@@@@@@++++++++++++++++++++@@@@@@@@@@@@@@@@++++@@@@........@@@@@@@@@@@@++++++++++++++++++++@@@@@@@@@@@@@@@@++++@@@@........",
"++++++++++++++++++++++++++++++++++++++++++++++++++++@@@@@@@@@@@@++++++++++++++++++++++++++++++++++++++++++++++++++++@@@@@@@@@@@@",
"++++++++++++++++++++++++++++++++++++++++++++++++++++@@@@@@@@@@@@++++++++++++++++++++++++++++++++++++++++++++++++++++@@@@@@@@@@@@",
"++++++++++++++++++++++++++++++++++++++++++++++++++++@@@@@@@@@@@@++++++++++++++++++++++++++++++++++++++++++++++++++++@@@@@@@@@@@@",
"++++++++++++++++++++++++++++++++++++++++++++++++++++@@@@@@@@@@@@++++++++++++++++++++++++++++++++++++++++++++++++++++@@@@@@@@@@@@",
"++++++++++++@@@@@@@@++++            ........++++++++++++++++++++++++++++++++@@@@@@@@++++            ........++++++++++++++++++++",
"++++++++++++@@@@@@@@++++            ........++++++++++++++++++++++++++++++++@@@@@@@@++++            ........++++++++++++++++++++",
"++++++++++++@@@@@@@@++++            ........++++++++++++++++++++++++++++++++@@@@@@@@++++            ........++++++++++++++++++++",
"++++++++++++@@@@@@@@++++            ........++++++++++++++++++++++++++++++++@@@@@@@@++++            ........++++++++++++++++++++",
"++++++++++++@@@@@@@@++++            ........++++++++@@@@@@@@@@@@++++++++++++@@@@@@@@++++            ........++++++++@@@@@@@@@@@@",
"++++++++++++@@@@@@@@++++            ........++++++++@@@@@@@@@@@@++++++++++++@@@@@@@@++++            ........++++++++@@@@@@@@@@@@",
"++++++++++++@@@@@@@@++++            ........++++++++@@@@@@@@@@@@++++++++++++@@@@@@@@++++            ........++++++++@@@@@@@@@@@@",
"++++++++++++@@@@@@@@++++            ........++++++++@@@@@@@@@@@@++++++++++++@@@@@@@@++++            ........++++++++@@@@@@@@@@@@",
"        ....++++++++++++....................++++....                    ....++++++++++++....................++++....            ",
"        ....++++++++++++....................++++....                    ....++++++++++++....................++++....            ",
"        ....++++++++++++....................++++....                    ....++++++++++++....................++++....            ",
"        ....++++++++++++....................++++....                    ....++++++++++++....................++++....            ",
"............++++++++++++@@@@@@@@............++++....    ....................++++++++++++@@@@@@@@............++++....    ........",
"............++++++++++++@@@@@@@@............++++....    ....................++++++++++++@@@@@@@@............++++....    ........",
"............++++++++++++@@@@@@@@............++++....    ....................++++++++++++@@@@@@@@............++++....    ........",
"............++++++++++++@@@@@@@@............++++....    ....................++++++++++++@@@@@@@@............++++....    ........",
"............++++++++++++++++@@@@@@@@@@@@@@@@++++............................++++++++++++++++@@@@@@@@@@@@@@@@++++................",
"............++++++++++++++++@@@@@@@@@@@@@@@@++++............................++++++++++++++++@@@@@@@@@@@@@@@@++++................",
"............++++++++++++++++@@@@@@@@@@@@@@@@++++............................++++++++++++++++@@@@@@@@@@@@@@@@++++................",
"............++++++++++++++++@@@@@@@@@@@@@@@@++++............................++++++++++++++++@@@@@@@@@@@@@@@@++++................",
"@@@@@@@@@@@@++++++++++++++++++++++++++++++++++++................@@@@@@@@@@@@++++++++++++++++++++++++++++++++++++................",
"@@@@@@@@@@@@++++++++++++++++++++++++++++++++++++................@@@@@@@@@@@@++++++++++++++++++++++++++++++++++++................",
"@@@@@@@@@@@@++++++++++++++++++++++++++++++++++++................@@@@@@@@@@@@++++++++++++++++++++++++++++++++++++................",
"@@@@@@@@@@@@++++++++++++++++++++++++++++++++++++................@@@@@@@@@@@@++++++++++++++++++++++++++++++++++++................",
"++++++++        ........++++++++@@@@@@@@++++++++@@@@@@@@@@@@@@@@++++++++        ........++++++++@@@@@@@@++++++++@@@@@@@@@@@@@@@@",
"++++++++        ........++++++++@@@@@@@@++++++++@@@@@@@@@@@@@@@@++++++++        ........++++++++@@@@@@@@++++++++@@@@@@@@@@@@@@@@",
"++++++++        ........++++++++@@@@@@@@++++++++@@@@@@@@@@@@@@@@++++++++        ........++++++++@@@@@@@@++++++++@@@@@@@@@@@@@@@@",
"++++++++        ........++++++++@@@@@@@@++++++++@@@@@@@@@@@@@@@@++++++++        ........++++++++@@@@@@@@++++++++@@@@@@@@@@@@@@@@",
"++++++++        ........++++++++++++++++++++++++@@@@@@@@@@@@++++++++++++        ........++++++++++++++++++++++++@@@@@@@@@@@@++++",
"++++++++        ........++++++++++++++++++++++++@@@@@@@@@@@@++++++++++++        ........++++++++++++++++++++++++@@@@@@@@@@@@++++",
"++++++++        ........++++++++++++++++++++++++@@@@@@@@@@@@++++++++++++        ........++++++++++++++++++++++++@@@@@@@@@@@@++++",
"++++++++        ........++++++++++++++++++++++++@@@@@@@@@@@@++++++++++++        ........++++++++++++++++++++++++@@@@@@@@@@@@++++",
"++++++++................++++                ++++++++++++++++++++++++++++................++++                ++++++++++++++++++++",
"++++++++................++++                ++++++++++++++++++++++++++++................++++                ++++++++++++++++++++",
"++++++++................++++                ++++++++++++++++++++++++++++................++++                ++++++++++++++++++++",
"++++++++................++++                ++++++++++++++++++++++++++++................++++                ++++++++++++++++++++",
"++++++++............++++@@@@................@@@@@@@@++++++++++++++++++++............++++@@@@................@@@@@@@@++++++++++++",
"++++++++............++++@@@@................@@@@@@@@++++++++++++++++++++............++++@@@@................@@@@@@@@++++++++++++",
"++++++++............++++@@@@................@@@@@@@@++++++++++++++++++++............++++@@@@................@@@@@@@@++++++++++++",
"++++++++............++++@@@@................@@@@@@@@++++++++++++++++++++............++++@@@@................@@@@@@@@++++++++++++",
"++++++++++++++++++++++++@@@@....        ........@@@@++++++++++++++++++++++++++++++++++++@@@@....        ........@@@@++++++++++++",
"++++++++++++++++++++++++@@@@....        ........@@@@++++++++++++++++++++++++++++++++++++@@@@....        ........@@@@++++++++++++",
"++++++++++++++++++++++++@@@@....        ........@@@@++++++++++++++++++++++++++++++++++++@@@@....        ........@@@@++++++++++++",
"++++++++++++++++++++++++@@@@....        ........@@@@++++++++++++++++++++++++++++++++++++@@@@....        ........@@@@++++++++++++",
"++++........@@@@@@@@++++++++++++    ............++++        ....++++........@@@@@@@@++++++++++++    ............++++        ....",
"++++........@@@@@@@@++++++++++++    ............++++        ....++++........@@@@@@@@++++++++++++    ............++++        ....",
"++++........@@@@@@@@++++++++++++    ............++++        ....++++........@@@@@@@@++++++++++++    ............++++        ....",
"++++........@@@@@@@@++++++++++++    ............++++        ....++++........@@@@@@@@++++++++++++    ............++++        ....",
"    ........++++++++@@@@@@@@++++    ............++++                ........++++++++@@@@@@@@++++    ............++++            ",
"    ........++++++++@@@@@@@@++++    ............++++                ........++++++++@@@@@@@@++++    ............++++            ",
"    ........++++++++@@@@@@@@++++    ............++++                ........++++++++@@@@@@@@++++    ............++++            ",
"    ........++++++++@@@@@@@@++++    ............++++                ........++++++++@@@@@@@@++++    ............++++            ",
"............++++++++++++++++++++............@@@@++++    ....................++++++++++++++++++++............@@@@++++    ........",
"............++++++++++++++++++++............@@@@++++    ....................++++++++++++++++++++............@@@@++++    ........",
"............++++++++++++++++++++............@@@@++++    ....................++++++++++++++++++++............@@@@++++    ........",
"............++++++++++++++++++++............@@@@++++    ....................++++++++++++++++++++............@@@@++++    ........",
"@@@@@@@@@@@@++++++++++++++++++++@@@@@@@@@@@@@@@@++++@@@@........@@@@@@@@@@@@++++++++++++++++++++@@@@@@@@@@@@@@@@++++@@@@........",
"@@@@@@@@@@@@++++++++++++++++++++@@@@@@@@@@@@@@@@++++@@@@........@@@@@@@@@@@@++++++++++++++++++++@@@@@@@@@@@@@@@@++++@@@@........",
"@@@@@@@@@@@@++++++++++++++++++++@@@@@@@@@@@@@@@@++++@@@@........@@@@@@@@@@@@++++++++++++++++++++@@@@@@@@@@@@@@@@++++@@@@........",
"@@@@@@@@@@@@++++++++++++++++++++@@@@@@@@@@@@@@@@++++@@@@........@@@@@@@@@@@@++++++++++++++++++++@@@@@@@@@@@@@@@@++++@@@@........",
"++++++++++++++++++++++++++++++++++++++++++++++++++++@@@@@@@@@@@@++++++++++++++++++++++++++++++++++++++++++++++++++++@@@@@@@@@@@@",
"++++++++++++++++++++++++++++++++++++++++++++++++++++@@@@@@@@@@@@++++++++++++++++++++++++++++++++++++++++++++++++++++@@@@@@@@@@@@",
"++++++++++++++++++++++++++++++++++++++++++++++++++++@@@@@@@@@@@@++++++++++++++++++++++++++++++++++++++++++++++++++++@@@@@@@@@@@@",
"++++++++++++++++++++++++++++++++++++++++++++++++++++@@@@@@@@@@@@++++++++++++++++++++++++++++++++++++++++++++++++++++@@@@@@@@@@@@",
"++++++++++++@@@@@@@@++++            ........++++++++++++++++++++++++++++++++@@@@@@@@++++            ........++++++++++++++++++++",
"++++++++++++@@@@@@@@++++            ........++++++++++++++++++++++++++++++++@@@@@@@@++++            ........++++++++++++++++++++",
"++++++++++++@@@@@@@@++++            ........++++++++++++++++++++++++++++++++@@@@@@@@++++            ........++++++++++++++++++++",
"++++++++++++@@@@@@@@++++            ........++++++++++++++++++++++++++++++++@@@@@@@@++++            ........++++++++++++++++++++",
"++++++++++++@@@@@@@@++++            ........++++++++@@@@@@@@@@@@++++++++++++@@@@@@@@++++            ........++++++++@@@@@@@@@@@@",
"++++++++++++@@@@@@@@++++            ........++++++++@@@@@@@@@@@@++++++++++++@@@@@@@@++++            ........++++++++@@@@@@@@@@@@",
"++++++++++++@@@@@@@@++++            ........++++++++@@@@@@@@@@@@++++++++++++@@@@@@@@++++            ........++++++++@@@@@@@@@@@@",
"++++++++++++@@@@@@@@++++            ........++++++++@@@@@@@@@@@@++++++++++++@@@@@@@@++++            ........++++++++@@@@@@@@@@@@",
"        ....++++++++++++....................++++....                    ....++++++++++++....................++++....            ",
"        ....++++++++++++....................++++....                    ....++++++++++++....................++++....            ",
"        ....++++++++++++....................++++....                    ....++++++++++++....................++++....            ",
"        ....++++++++++++....................++++....                    ....++++++++++++....................++++....            ",
"............++++++++++++@@@@@@@@............++++....    ....................++++++++++++@@@@@@@@............++++....    ........",
"............++++++++++++@@@@@@@@............++++....    ....................++++++++++++@@@@@@@@............++++....    ........",
"............++++++++++++@@@@@@@@............++++....    ....................++++++++++++@@@@@@@@............++++....    ........",
"............++++++++++++@@@@@@@@............++++....    ....................++++++++++++@@@@@@@@............++++....    ........",
"............++++++++++++++++@@@@@@@@@@@@@@@@++++............................++++++++++++++++@@@@@@@@@@@@@@@@++++................",
"............++++++++++++++++@@@@@@@@@@@@@@@@++++............................++++++++++++++++@@@@@@@@@@@@@@@@++++................",
"............++++++++++++++++@@@@@@@@@@@@@@@@++++............................++++++++++++++++@@@@@@@@@@@@@@@@++++................",
"............++++++++++++++++@@@@@@@@@@@@@@@@++++............................++++++++++++++++@@@@@@@@@@@@@@@@++++................",
"@@@@@@@@@@@@++++++++++++++++++++++++++++++++++++................@@@@@@@@@@@@++++++++++++++++++++++++++++++++++++................",
"@@@@@@@@@@@@++++++++++++++++++++++++++++++++++++................@@@@@@@@@@@@++++++++++++++++++++++++++++++++++++................",
"@@@@@@@@@@@@++++++++++++++++++++++++++++++++++++................@@@@@@@@@@@@++++++++++++++++++++++++++++++++++++................",
"@@@@@@@@@@@@++++++++++++++++++++++++++++++++++++................@@@@@@@@@@@@++++++++++++++++++++++++++++++++++++................",
"++++++++        ........++++++++@@@@@@@@++++++++@@@@@@@@@@@@@@@@++++++++        ........++++++++@@@@@@@@++++++++@@@@@@@@@@@@@@@@",
"++++++++        ........++++++++@@@@@@@@++++++++@@@@@@@@@@@@@@@@++++++++        ........++++++++@@@@@@@@++++++++@@@@@@@@@@@@@@@@",
"++++++++        ........++++++++@@@@@@@@++++++++@@@@@@@@@@@@@@@@++++++++        ........++++++++@@@@@@@@++++++++@@@@@@@@@@@@@@@@",
"++++++++        ........++++++++@@@@@@@@++++++++@@@@@@@@@@@@@@@@++++++++        ........++++++++@@@@@@@@++++++++@@@@@@@@@@@@@@@@",
"++++++++        ........++++++++++++++++++++++++@@@@@@@@@@@@++++++++++++        ........++++++++++++++++++++++++@@@@@@@@@@@@++++",
"++++++++        ........++++++++++++++++++++++++@@@@@@@@@@@@++++++++++++        ........++++++++++++++++++++++++@@@@@@@@@@@@++++",
"++++++++        ........++++++++++++++++++++++++@@@@@@@@@@@@++++++++++++        ........++++++++++++++++++++++++@@@@@@@@@@@@++++",
"++++++++        ........++++++++++++++++++++++++@@@@@@@@@@@@++++++++++++        ........++++++++++++++++++++++++@@@@@@@@@@@@++++",
"++++++++................++++                ++++++++++++++++++++++++++++................++++                ++++++++++++++++++++",
"++++++++................++++                ++++++++++++++++++++++++++++................++++                ++++++++++++++++++++",
"++++++++................++++                ++++++++++++++++++++++++++++................++++                ++++++++++++++++++++",
"++++++++................++++                ++++++++++++++++++++++++++++................++++                ++++++++++++++++++++",
"++++++++............++++@@@@................@@@@@@@@++++++++++++++++++++............++++@@@@................@@@@@@@@++++++++++++",
"++++++++............++++@@@@................@@@@@@@@++++++++++++++++++++............++++@@@@................@@@@@@@@++++++++++++",
"++++++++............++++@@@@................@@@@@@@@++++++++++++++++++++............++++@@@@................@@@@@@@@++++++++++++",
"++++++++............++++@@@@................@@@@@@@@++++++++++++++++++++............++++@@@@................@@@@@@@@++++++++++++",
"++++++++++++++++++++++++@@@@....        ........@@@@++++++++++++++++++++++++++++++++++++@@@@....        ........@@@@++++++++++++",
"++++++++++++++++++++++++@@@@....        ........@@@@++++++++++++++++++++++++++++++++++++@@@@....        ........@@@@++++++++++++",
"++++++++++++++++++++++++@@@@....        ........@@@@++++++++++++++++++++++++++++++++++++@@@@....        ........@@@@++++++++++++",
"++++++++++++++++++++++++@@@@....        ........@@@@++++++++++++++++++++++++++++++++++++@@@@....        ........@@@@++++++++++++",
"++++........@@@@@@@@++++++++++++    ............++++        ....++++........@@@@@@@@++++++++++++    ............++++        ....",
"++++........@@@@@@@@++++++++++++    ............++++        ....++++........@@@@@@@@++++++++++++    ............++++        ....",
"++++........@@@@@@@@++++++++++++    ............++++        ....++++........@@@@@@@@++++++++++++    ............++++        ....",
"++++........@@@@@@@@++++++++++++    ............++++        ....++++........@@@@@@@@++++++++++++    ............++++        ...."};
