/* XPM */
static char * wall_xpm[] = {
"64 64 6 1",
" 	c #252941",
".	c #3E455D",
"+	c #181425",
"@	c #5A6177",
"#	c #202136",
"$	c #2C2F4A",
"  ....++++..........@@++++######  ....++++..........@@++++######",
"  ....++++..........@@++++######  ....++++..........@@++++######",
"..@@....++##........@@$$++++++  ..@@....++##........@@$$++++++  ",
"..@@....++##........@@$$++++++  ..@@....++##........@@$$++++++  ",
"....@@....++##........$$++++  ......@@....++##........$$++++  ..",
"....@@....++##........$$++++  ......@@....++##........$$++++  ..",
"....@@....++++########$$++  ........@@....++++########$$++  ....",
"....@@....++++########$$++  ........@@....++++########$$++  ....",
"....@@$$$$++++++++++++++++  ........@@$$$$++++++++++++++++  ....",
"....@@$$$$++++++++++++++++  ........@@$$$$++++++++++++++++  ....",
"..@@$$$$++        ....++++##......@@$$$$++        ....++++##....",
"..@@$$$$++        ....++++##......@@$$$$++        ....++++##....",
"..$$$$++    ......@@....++####....$$$$++    ......@@....++####..",
"..$$$$++    ......@@....++####....$$$$++    ......@@....++####..",
"$$$$++++    ........@@....++####$$$$++++    ........@@....++####",
"$$$$++++    ........@@....++####$$$$++++    ........@@....++####",
"++++++++$$$$..........@@....++##++++++++$$$$..........@@....++##",
"++++++++$$$$..........@@....++##++++++++$$$$..........@@....++##",
"    ++++$$$$............@@....++    ++++$$$$............@@....++",
"    ++++$$$$............@@....++    ++++$$$$............@@....++",
"..@@  ++####............@@$$$$++..@@  ++####............@@$$$$++",
"..@@  ++####............@@$$$$++..@@  ++####............@@$$$$++",
"....@@$$++####........@@$$$$++......@@$$++####........@@$$$$++..",
"....@@$$++####........@@$$$$++......@@$$++####........@@$$$$++..",
"....@@$$++++######$$$$$$$$++........@@$$++++######$$$$$$$$++....",
"....@@$$++++######$$$$$$$$++........@@$$++++######$$$$$$$$++....",
"..@@$$++++....@@########++........@@$$++++....@@########++......",
"..@@$$++++....@@########++........@@$$++++....@@########++......",
"..$$++++........@@++++++##........$$++++........@@++++++##......",
"..$$++++........@@++++++##........$$++++........@@++++++##......",
"$$++  ++..........@@++++##$$....$$++  ++..........@@++++##$$....",
"$$++  ++..........@@++++##$$....$$++  ++..........@@++++##$$....",
"  ....++++..........@@++++######  ....++++..........@@++++######",
"  ....++++..........@@++++######  ....++++..........@@++++######",
"..@@....++##........@@$$++++++  ..@@....++##........@@$$++++++  ",
"..@@....++##........@@$$++++++  ..@@....++##........@@$$++++++  ",
"....@@....++##........$$++++  ......@@....++##........$$++++  ..",
"....@@....++##........$$++++  ......@@....++##........$$++++  ..",
"....@@....++++########$$++  ........@@....++++########$$++  ....",
"....@@....++++########$$++  ........@@....++++########$$++  ....",
"....@@$$$$++++++++++++++++  ........@@$$$$++++++++++++++++  ....",
"....@@$$$$++++++++++++++++  ........@@$$$$++++++++++++++++  ....",
"..@@$$$$++        ....++++##......@@$$$$++        ....++++##....",
"..@@$$$$++        ....++++##......@@$$$$++        ....++++##....",
"..$$$$++    ......@@....++####....$$$$++    ......@@....++####..",
"..$$$$++    ......@@....++####....$$$$++    ......@@....++####..",
"$$$$++++    ........@@....++####$$$$++++    ........@@....++####",
"$$$$++++    ........@@....++####$$$$++++    ........@@....++####",
"++++++++$$$$..........@@....++##++++++++$$$$..........@@....++##",
"++++++++$$$$..........@@....++##++++++++$$$$..........@@....++##",
"    ++++$$$$............@@....++    ++++$$$$............@@....++",
"    ++++$$$$............@@....++    ++++$$$$............@@....++",
"..@@  ++####............@@$$$$++..@@  ++####............@@$$$$++",
"..@@  ++####............@@$$$$++..@@  ++####............@@$$$$++",
"....@@$$++####........@@$$$$++......@@$$++####........@@$$$$++..",
"....@@$$++####........@@$$$$++......@@$$++####........@@$$$$++..",
"....@@$$++++######$$$$$$$$++........@@$$++++######$$$$$$$$++....",
"....@@$$++++######$$$$$$$$++........@@$$++++######$$$$$$$$++....",
"..@@$$++++....@@########++........@@$$++++....@@########++......",
"..@@$$++++....@@########++........@@$$++++....@@########++......",
"..$$++++........@@++++++##........$$++++........@@++++++##......",
"..$$++++........@@++++++##........$$++++........@@++++++##......",
"$$++  ++..........@@++++##$$....$$++  ++..........@@++++##$$....",
"$$++  ++..........@@++++##$$....$$++  ++..........@@++++##$$...."};
