/* XPM */
static char * wall_xpm[] = {
"128 128 4 1",
" 	c #262B44",
".	c #6F7F9A",
"+	c #4C5A79",
"@	c #3A4466",
"            ............++++                                                ............++++                                    ",
"            ............++++                                                ............++++                                    ",
"            ............++++                                                ............++++                                    ",
"            ............++++                                                ............++++                                    ",
"        ....++++++++++++@@@@            ............++++                ....++++++++++++@@@@            ............++++        ",
"        ....++++++++++++@@@@            ............++++                ....++++++++++++@@@@            ............++++        ",
"        ....++++++++++++@@@@            ............++++                ....++++++++++++@@@@            ............++++        ",
"        ....++++++++++++@@@@            ............++++                ....++++++++++++@@@@            ............++++        ",
"        ....++++++++++++@@@@        ....++++++++++++@@@@                ....++++++++++++@@@@        ....++++++++++++@@@@        ",
"        ....++++++++++++@@@@        ....++++++++++++@@@@                ....++++++++++++@@@@        ....++++++++++++@@@@        ",
"        ....++++++++++++@@@@        ....++++++++++++@@@@                ....++++++++++++@@@@        ....++++++++++++@@@@        ",
"        ....++++++++++++@@@@        ....++++++++++++@@@@                ....++++++++++++@@@@        ....++++++++++++@@@@        ",
"........    @@@@++++++++@@@@        ....++++++++@@@@        ............    @@@@++++++++@@@@        ....++++++++@@@@        ....",
"........    @@@@++++++++@@@@        ....++++++++@@@@        ............    @@@@++++++++@@@@        ....++++++++@@@@        ....",
"........    @@@@++++++++@@@@        ....++++++++@@@@        ............    @@@@++++++++@@@@        ....++++++++@@@@        ....",
"........    @@@@++++++++@@@@        ....++++++++@@@@        ............    @@@@++++++++@@@@        ....++++++++@@@@        ....",
"++++++++@@@@    @@@@@@@@                @@@@@@@@        ....++++++++++++@@@@    @@@@@@@@                @@@@@@@@        ....++++",
"++++++++@@@@    @@@@@@@@                @@@@@@@@        ....++++++++++++@@@@    @@@@@@@@                @@@@@@@@        ....++++",
"++++++++@@@@    @@@@@@@@                @@@@@@@@        ....++++++++++++@@@@    @@@@@@@@                @@@@@@@@        ....++++",
"++++++++@@@@    @@@@@@@@                @@@@@@@@        ....++++++++++++@@@@    @@@@@@@@                @@@@@@@@        ....++++",
"++++++++@@@@                ................++++        ....++++++++++++@@@@                ................++++        ....++++",
"++++++++@@@@                ................++++        ....++++++++++++@@@@                ................++++        ....++++",
"++++++++@@@@                ................++++        ....++++++++++++@@@@                ................++++        ....++++",
"++++++++@@@@                ................++++        ....++++++++++++@@@@                ................++++        ....++++",
"++++++++@@@@            ....++++++++++++++++@@@@        @@@@++++++++++++@@@@            ....++++++++++++++++@@@@        @@@@++++",
"++++++++@@@@            ....++++++++++++++++@@@@        @@@@++++++++++++@@@@            ....++++++++++++++++@@@@        @@@@++++",
"++++++++@@@@            ....++++++++++++++++@@@@        @@@@++++++++++++@@@@            ....++++++++++++++++@@@@        @@@@++++",
"++++++++@@@@            ....++++++++++++++++@@@@        @@@@++++++++++++@@@@            ....++++++++++++++++@@@@        @@@@++++",
"@@@@@@@@            ....++++++++++++++++++++@@@@            @@@@@@@@@@@@            ....++++++++++++++++++++@@@@            @@@@",
"@@@@@@@@            ....++++++++++++++++++++@@@@            @@@@@@@@@@@@            ....++++++++++++++++++++@@@@            @@@@",
"@@@@@@@@            ....++++++++++++++++++++@@@@            @@@@@@@@@@@@            ....++++++++++++++++++++@@@@            @@@@",
"@@@@@@@@            ....++++++++++++++++++++@@@@            @@@@@@@@@@@@            ....++++++++++++++++++++@@@@            @@@@",
"                    ....++++++++++++++++@@@@                                        ....++++++++++++++++@@@@                    ",
"                    ....++++++++++++++++@@@@                                        ....++++++++++++++++@@@@                    ",
"                    ....++++++++++++++++@@@@                                        ....++++++++++++++++@@@@                    ",
"                    ....++++++++++++++++@@@@                                        ....++++++++++++++++@@@@                    ",
"........++++            @@@@@@@@@@@@@@@@                ................++++            @@@@@@@@@@@@@@@@                ........",
"........++++            @@@@@@@@@@@@@@@@                ................++++            @@@@@@@@@@@@@@@@                ........",
"........++++            @@@@@@@@@@@@@@@@                ................++++            @@@@@@@@@@@@@@@@                ........",
"........++++            @@@@@@@@@@@@@@@@                ................++++            @@@@@@@@@@@@@@@@                ........",
"++++++++@@@@                                        ....++++++++++++++++@@@@                                        ....++++++++",
"++++++++@@@@                                        ....++++++++++++++++@@@@                                        ....++++++++",
"++++++++@@@@                                        ....++++++++++++++++@@@@                                        ....++++++++",
"++++++++@@@@                                        ....++++++++++++++++@@@@                                        ....++++++++",
"++++++++++++@@@@                                    ....++++++++++++++++++++@@@@                                    ....++++++++",
"++++++++++++@@@@                                    ....++++++++++++++++++++@@@@                                    ....++++++++",
"++++++++++++@@@@                                    ....++++++++++++++++++++@@@@                                    ....++++++++",
"++++++++++++@@@@                                    ....++++++++++++++++++++@@@@                                    ....++++++++",
"++++++++++++@@@@            ................++++    ....++++++++++++++++++++@@@@            ................++++    ....++++++++",
"++++++++++++@@@@            ................++++    ....++++++++++++++++++++@@@@            ................++++    ....++++++++",
"++++++++++++@@@@            ................++++    ....++++++++++++++++++++@@@@            ................++++    ....++++++++",
"++++++++++++@@@@            ................++++    ....++++++++++++++++++++@@@@            ................++++    ....++++++++",
"++++++++++++@@@@        ....++++++++++++++++@@@@    @@@@++++++++++++++++++++@@@@        ....++++++++++++++++@@@@    @@@@++++++++",
"++++++++++++@@@@        ....++++++++++++++++@@@@    @@@@++++++++++++++++++++@@@@        ....++++++++++++++++@@@@    @@@@++++++++",
"++++++++++++@@@@        ....++++++++++++++++@@@@    @@@@++++++++++++++++++++@@@@        ....++++++++++++++++@@@@    @@@@++++++++",
"++++++++++++@@@@        ....++++++++++++++++@@@@    @@@@++++++++++++++++++++@@@@        ....++++++++++++++++@@@@    @@@@++++++++",
"@@@@@@@@@@@@            ....++++++++++++++++@@@@        @@@@@@@@@@@@@@@@@@@@            ....++++++++++++++++@@@@        @@@@@@@@",
"@@@@@@@@@@@@            ....++++++++++++++++@@@@        @@@@@@@@@@@@@@@@@@@@            ....++++++++++++++++@@@@        @@@@@@@@",
"@@@@@@@@@@@@            ....++++++++++++++++@@@@        @@@@@@@@@@@@@@@@@@@@            ....++++++++++++++++@@@@        @@@@@@@@",
"@@@@@@@@@@@@            ....++++++++++++++++@@@@        @@@@@@@@@@@@@@@@@@@@            ....++++++++++++++++@@@@        @@@@@@@@",
"                            @@@@@@@@@@@@@@@@                                                @@@@@@@@@@@@@@@@                    ",
"                            @@@@@@@@@@@@@@@@                                                @@@@@@@@@@@@@@@@                    ",
"                            @@@@@@@@@@@@@@@@                                                @@@@@@@@@@@@@@@@                    ",
"                            @@@@@@@@@@@@@@@@                                                @@@@@@@@@@@@@@@@                    ",
"            ............++++                                                ............++++                                    ",
"            ............++++                                                ............++++                                    ",
"            ............++++                                                ............++++                                    ",
"            ............++++                                                ............++++                                    ",
"        ....++++++++++++@@@@            ............++++                ....++++++++++++@@@@            ............++++        ",
"        ....++++++++++++@@@@            ............++++                ....++++++++++++@@@@            ............++++        ",
"        ....++++++++++++@@@@            ............++++                ....++++++++++++@@@@            ............++++        ",
"        ....++++++++++++@@@@            ............++++                ....++++++++++++@@@@            ............++++        ",
"        ....++++++++++++@@@@        ....++++++++++++@@@@                ....++++++++++++@@@@        ....++++++++++++@@@@        ",
"        ....++++++++++++@@@@        ....++++++++++++@@@@                ....++++++++++++@@@@        ....++++++++++++@@@@        ",
"        ....++++++++++++@@@@        ....++++++++++++@@@@                ....++++++++++++@@@@        ....++++++++++++@@@@        ",
"        ....++++++++++++@@@@        ....++++++++++++@@@@                ....++++++++++++@@@@        ....++++++++++++@@@@        ",
"........    @@@@++++++++@@@@        ....++++++++@@@@        ............    @@@@++++++++@@@@        ....++++++++@@@@        ....",
"........    @@@@++++++++@@@@        ....++++++++@@@@        ............    @@@@++++++++@@@@        ....++++++++@@@@        ....",
"........    @@@@++++++++@@@@        ....++++++++@@@@        ............    @@@@++++++++@@@@        ....++++++++@@@@        ....",
"........    @@@@++++++++@@@@        ....++++++++@@@@        ............    @@@@++++++++@@@@        ....++++++++@@@@        ....",
"++++++++@@@@    @@@@@@@@                @@@@@@@@        ....++++++++++++@@@@    @@@@@@@@                @@@@@@@@        ....++++",
"++++++++@@@@    @@@@@@@@                @@@@@@@@        ....++++++++++++@@@@    @@@@@@@@                @@@@@@@@        ....++++",
"++++++++@@@@    @@@@@@@@                @@@@@@@@        ....++++++++++++@@@@    @@@@@@@@                @@@@@@@@        ....++++",
"++++++++@@@@    @@@@@@@@                @@@@@@@@        ....++++++++++++@@@@    @@@@@@@@                @@@@@@@@        ....++++",
"++++++++@@@@                ................++++        ....++++++++++++@@@@                ................++++        ....++++",
"++++++++@@@@                ................++++        ....++++++++++++@@@@                ................++++        ....++++",
"++++++++@@@@                ................++++        ....++++++++++++@@@@                ................++++        ....++++",
"++++++++@@@@                ................++++        ....++++++++++++@@@@                ................++++        ....++++",
"++++++++@@@@            ....++++++++++++++++@@@@        @@@@++++++++++++@@@@            ....++++++++++++++++@@@@        @@@@++++",
"++++++++@@@@            ....++++++++++++++++@@@@        @@@@++++++++++++@@@@            ....++++++++++++++++@@@@        @@@@++++",
"++++++++@@@@            ....++++++++++++++++@@@@        @@@@++++++++++++@@@@            ....++++++++++++++++@@@@        @@@@++++",
"++++++++@@@@            ....++++++++++++++++@@@@        @@@@++++++++++++@@@@            ....++++++++++++++++@@@@        @@@@++++",
"@@@@@@@@            ....++++++++++++++++++++@@@@            @@@@@@@@@@@@            ....++++++++++++++++++++@@@@            @@@@",
"@@@@@@@@            ....++++++++++++++++++++@@@@            @@@@@@@@@@@@            ....++++++++++++++++++++@@@@            @@@@",
"@@@@@@@@            ....++++++++++++++++++++@@@@            @@@@@@@@@@@@            ....++++++++++++++++++++@@@@            @@@@",
"@@@@@@@@            ....++++++++++++++++++++@@@@            @@@@@@@@@@@@            ....++++++++++++++++++++@@@@            @@@@",
"                    ....++++++++++++++++@@@@                                        ....++++++++++++++++@@@@                    ",
"                    ....++++++++++++++++@@@@                                        ....++++++++++++++++@@@@                    ",
"                    ....++++++++++++++++@@@@                                        ....++++++++++++++++@@@@                    ",
"                    ....++++++++++++++++@@@@                                        ....++++++++++++++++@@@@                    ",
"........++++            @@@@@@@@@@@@@@@@                ................++++            @@@@@@@@@@@@@@@@                ........",
"........++++            @@@@@@@@@@@@@@@@                ................++++            @@@@@@@@@@@@@@@@                ........",
"........++++            @@@@@@@@@@@@@@@@                ................++++            @@@@@@@@@@@@@@@@                ........",
"........++++            @@@@@@@@@@@@@@@@                ................++++            @@@@@@@@@@@@@@@@                ........",
"++++++++@@@@                                        ....++++++++++++++++@@@@                                        ....++++++++",
"++++++++@@@@                                        ....++++++++++++++++@@@@                                        ....++++++++",
"++++++++@@@@                                        ....++++++++++++++++@@@@                                        ....++++++++",
"++++++++@@@@                                        ....++++++++++++++++@@@@                                        ....++++++++",
"++++++++++++@@@@                                    ....++++++++++++++++++++@@@@                                    ....++++++++",
"++++++++++++@@@@                                    ....++++++++++++++++++++@@@@                                    ....++++++++",
"++++++++++++@@@@                                    ....++++++++++++++++++++@@@@                                    ....++++++++",
"++++++++++++@@@@                                    ....++++++++++++++++++++@@@@                                    ....++++++++",
"++++++++++++@@@@            ................++++    ....++++++++++++++++++++@@@@            ................++++    ....++++++++",
"++++++++++++@@@@            ................++++    ....++++++++++++++++++++@@@@            ................++++    ....++++++++",
"++++++++++++@@@@            ................++++    ....++++++++++++++++++++@@@@            ................++++    ....++++++++",
"++++++++++++@@@@            ................++++    ....++++++++++++++++++++@@@@            ................++++    ....++++++++",
"++++++++++++@@@@        ....++++++++++++++++@@@@    @@@@++++++++++++++++++++@@@@        ....++++++++++++++++@@@@    @@@@++++++++",
"++++++++++++@@@@        ....++++++++++++++++@@@@    @@@@++++++++++++++++++++@@@@        ....++++++++++++++++@@@@    @@@@++++++++",
"++++++++++++@@@@        ....++++++++++++++++@@@@    @@@@++++++++++++++++++++@@@@        ....++++++++++++++++@@@@    @@@@++++++++",
"++++++++++++@@@@        ....++++++++++++++++@@@@    @@@@++++++++++++++++++++@@@@        ....++++++++++++++++@@@@    @@@@++++++++",
"@@@@@@@@@@@@            ....++++++++++++++++@@@@        @@@@@@@@@@@@@@@@@@@@            ....++++++++++++++++@@@@        @@@@@@@@",
"@@@@@@@@@@@@            ....++++++++++++++++@@@@        @@@@@@@@@@@@@@@@@@@@            ....++++++++++++++++@@@@        @@@@@@@@",
"@@@@@@@@@@@@            ....++++++++++++++++@@@@        @@@@@@@@@@@@@@@@@@@@            ....++++++++++++++++@@@@        @@@@@@@@",
"@@@@@@@@@@@@            ....++++++++++++++++@@@@        @@@@@@@@@@@@@@@@@@@@            ....++++++++++++++++@@@@        @@@@@@@@",
"                            @@@@@@@@@@@@@@@@                                                @@@@@@@@@@@@@@@@                    ",
"                            @@@@@@@@@@@@@@@@                                                @@@@@@@@@@@@@@@@                    ",
"                            @@@@@@@@@@@@@@@@                                                @@@@@@@@@@@@@@@@                    ",
"                            @@@@@@@@@@@@@@@@                                                @@@@@@@@@@@@@@@@                    "};
