/* XPM */
static char * background_xpm[] = {
"128 128 6 1",
" 	c #181425",
".	c #3A4466",
"+	c #262B44",
"@	c #394364",
"#	c #1F2035",
"$	c #22253B",
"                ............++                                              ............++++                                    ",
"                ............++                                              ............++++                                    ",
"                ............++                                              ............++++                                    ",
"                ............++                                              ............++++                                    ",
"....        ....++++++++++++++++++++        ............++++        ........++++++++++++++++++          ............++++        ",
"....        ....++++++++++++++++++++        ............++++        ........++++++++++++++++++          ............++++        ",
"....        ....++++++++++++++++++++        ............++++        ........++++++++++++++++++          ............++++        ",
"....        ....++++++++++++++++++++        ............++++        ........++++++++++++++++++          ............++++        ",
"++++        ....++++++++++++++++++++    ....++++++++++++++++        ++++....++++++++++++++++++      ....++++++++++++++++        ",
"++++        ....++++++++++++++++++++    ....++++++++++++++++        ++++....++++++++++++++++++      ....++++++++++++++++        ",
"++++        ....++++++++++++++++++++    ....++++++++++++++++        ++++....++++++++++++++++++      ....++++++++++++++++        ",
"++++        ....++++++++++++++++++++    ....++++++++++++++++        ++++....++++++++++++++++++      ....++++++++++++++++        ",
"++++....        ++++++++++++++          ....++++++++++++        ....++++++++++++++++++++++++        ....++++++++++++        ....",
"++++....        ++++++++++++++          ....++++++++++++        ....++++++++++++++++++++++++        ....++++++++++++        ....",
"++++....        ++++++++++++++          ....++++++++++++        ....++++++++++++++++++++++++        ....++++++++++++        ....",
"++++....        ++++++++++++++          ....++++++++++++        ....++++++++++++++++++++++++        ....++++++++++++        ....",
"++++++++++++        ++++++++                                ....++++++++++++++++++++++++                                ....++++",
"++++++++++++        ++++++++                                ....++++++++++++++++++++++++                                ....++++",
"++++++++++++        ++++++++                                ....++++++++++++++++++++++++                                ....++++",
"++++++++++++        ++++++++                                ....++++++++++++++++++++++++                                ....++++",
"    ++++++++                  ..............++++            ....++++++++++++++++            ............++++            ....++++",
"    ++++++++                  ..............++++            ....++++++++++++++++            ............++++            ....++++",
"    ++++++++                  ..............++++            ....++++++++++++++++            ............++++            ....++++",
"    ++++++++                  ..............++++            ....++++++++++++++++            ............++++            ....++++",
"    ++++++++                ..++++++++++++++++++++++        ++++++++++++                ....++++++++++++++++++++        ++++++++",
"    ++++++++                ..++++++++++++++++++++++        ++++++++++++                ....++++++++++++++++++++        ++++++++",
"    ++++++++                ..++++++++++++++++++++++        ++++++++++++                ....++++++++++++++++++++        ++++++++",
"    ++++++++                ..++++++++++++++++++++++        ++++++++++++                ....++++++++++++++++++++        ++++++++",
"    ++++                ....++++++++++++++++++++++++            ++++                ....++++++++++++++++++++++++            ++++",
"    ++++                ....++++++++++++++++++++++++            ++++                ....++++++++++++++++++++++++            ++++",
"                        ....++++++++++++++++++++                                    ....++++++++++++++++++++                    ",
"                        ....++++++++++++++++++++                                    ....++++++++++++++++++++                    ",
"                        ....++++++++++++++++++++                                    ....++++++++++++++++++++                    ",
"                        ....++++++++++++++++++++                                    ....++++++++++++++++++++                    ",
"                        ....++++++++++++++++++++                                    ....++++++++++++++++++++                    ",
"                        ....++++++++++++++++++++                                    ....++++++++++++++++++++                    ",
"    ........++++            ++++++++++++++++                ........    ++++            ++++++++++++++++                ........",
"    ........++++            ++++++++++++++++                ........    ++++            ++++++++++++++++                ........",
"  ..++......++++            ++++++++++++++++                ........    ++++            ++++++++++++++++                ........",
"  ..++......++++            ++++++++++++++++                ........    ++++            ++++++++++++++++                ........",
"....++++++++++++++++                                    ....++++++++++++++++++++                                    ....++++++++",
"....++++++++++++++++                                    ....++++++++++++++++++++                                    ....++++++++",
"++++++++++++++++++++                                    ....++++++++++++++++++++                                    ....++++++++",
"++++++++++++++++++++                                    ....++++++++++++++++++++                                    ....++++++++",
"++++++++++++++++++++++++                                ....++++++++++++++++++++++++                                ....++++++++",
"++++++++++++++++++++++++                                ....++++++++++++++++++++++++                                ....++++++++",
"++++++++++++++++++++++++                                ....++++++++++++++++++++++++                                ....++++++++",
"++++++++++++++++++++++++                                ....++++++++++++++++++++++++                                ....++++++++",
"++++++++++++++++++++++++      ..................++++    @@@@++++++++++++++++++++++++        ................++++    ....++++++++",
"++++++++++++++++++++++++      ..................++++    @@@@++++++++++++++++++++++++        ................++++    ....++++++++",
"++++++++++++++++++++++++      ..................++++    @@@@++++++++++++++++++++++++        ................++++    ....++++++++",
"++++++++++++++++++++++++      ..................++++    @@@@++++++++++++++++++++++++        ................++++    ....++++++++",
"++++++++++++++++++++++++    ..++++++++++++++++++++++    ####++++++++++++++++++++++++    ....++++++++++++++++++++    ++++++++++++",
"++++++++++++++++++++++++    ..++++++++++++++++++++++    ####++++++++++++++++++++++++    ....++++++++++++++++++++    ++++++++++++",
"++++++++++++++++++++++++    ..++++++++++++++++++++++    ####++++++++++++++++++++++++    ....++++++++++++++++++++    ++++++++++++",
"++++++++++++++++++++++++    ..++++++++++++++++++++++    ####++++++++++++++++++++++++    ....++++++++++++++++++++    ++++++++++++",
"++++++++++++++++++++        ..++++++++++++++++++++++        $$$$++++++++++++++++        ....++++++++++++++++++++        ++++++++",
"++++++++++++++++++++        ..++++++++++++++++++++++        $$$$++++++++++++++++        ....++++++++++++++++++++        ++++++++",
"++++++++++++++++++++        ..++++++++++++++++++++++        $$$$++++++++++++++++        ....++++++++++++++++++++        ++++++++",
"++++++++++++++++++++        ..++++++++++++++++++++++        $$$$++++++++++++++++        ....++++++++++++++++++++        ++++++++",
"                              ++++++++++++++++++                                            ++++++++++++++++                    ",
"                              ++++++++++++++++++                                            ++++++++++++++++                    ",
"                              ++++++++++++++++++                                            ++++++++++++++++                    ",
"                              ++++++++++++++++++                                            ++++++++++++++++                    ",
"                ............++                                              ............++++                                    ",
"                ............++                                              ............++++                                    ",
"                ............++                                              ............++++                                    ",
"                ............++                                              ............++++                                    ",
"....        ....++++++++++++++++++++        ............++++        ........++++++++++++++++++          ............++++        ",
"....        ....++++++++++++++++++++        ............++++        ........++++++++++++++++++          ............++++        ",
"....        ....++++++++++++++++++++        ............++++        ........++++++++++++++++++          ............++++        ",
"....        ....++++++++++++++++++++        ............++++        ........++++++++++++++++++          ............++++        ",
"++++        ....++++++++++++++++++++    ....++++++++++++++++        ++++....++++++++++++++++++      ....++++++++++++++++        ",
"++++        ....++++++++++++++++++++    ....++++++++++++++++        ++++....++++++++++++++++++      ....++++++++++++++++        ",
"++++        ....++++++++++++++++++++    ....++++++++++++++++        ++++....++++++++++++++++++      ....++++++++++++++++        ",
"++++        ....++++++++++++++++++++    ....++++++++++++++++        ++++....++++++++++++++++++      ....++++++++++++++++        ",
"++++....        ++++++++++++++          ....++++++++++++        ....++++++++++++++++++++++++        ....++++++++++++        ....",
"++++....        ++++++++++++++          ....++++++++++++        ....++++++++++++++++++++++++        ....++++++++++++        ....",
"++++....        ++++++++++++++          ....++++++++++++        ....++++++++++++++++++++++++        ....++++++++++++        ....",
"++++....        ++++++++++++++          ....++++++++++++        ....++++++++++++++++++++++++        ....++++++++++++        ....",
"++++++++++++        ++++++++                                ....++++++++++++++++++++++++                                ....++++",
"++++++++++++        ++++++++                                ....++++++++++++++++++++++++                                ....++++",
"++++++++++++        ++++++++                                ....++++++++++++++++++++++++                                ....++++",
"++++++++++++        ++++++++                                ....++++++++++++++++++++++++                                ....++++",
"    ++++++++                  ..............++++            ....++++++++++++                ............++++            ....++++",
"    ++++++++                  ..............++++            ....++++++++++++                ............++++            ....++++",
"    ++++++++                  ..............++++            ....++++++++++++                ............++++            ....++++",
"    ++++++++                  ..............++++            ....++++++++++++                ............++++            ....++++",
"    ++++++++                ..++++++++++++++++++++++        ++++++++++++                ....++++++++++++++++++++        ++++++++",
"    ++++++++                ..++++++++++++++++++++++        ++++++++++++                ....++++++++++++++++++++        ++++++++",
"    ++++++++                ..++++++++++++++++++++++        ++++++++++++                ....++++++++++++++++++++        ++++++++",
"    ++++++++                ..++++++++++++++++++++++        ++++++++++++                ....++++++++++++++++++++        ++++++++",
"    ++++                ....++++++++++++++++++++++++            ++++                ....++++++++++++++++++++++++            ++++",
"    ++++                ....++++++++++++++++++++++++            ++++                ....++++++++++++++++++++++++            ++++",
"                        ....++++++++++++++++++++                                    ....++++++++++++++++++++                    ",
"                        ....++++++++++++++++++++                                    ....++++++++++++++++++++                    ",
"                        ....++++++++++++++++++++                                    ....++++++++++++++++++++                    ",
"                        ....++++++++++++++++++++                                    ....++++++++++++++++++++                    ",
"                        ....++++++++++++++++++++                                    ....++++++++++++++++++++                    ",
"                        ....++++++++++++++++++++                                    ....++++++++++++++++++++                    ",
"    ........++++            ++++++++++++++++                ........    ++++            ++++++++++++++++                ........",
"    ........++++            ++++++++++++++++                ........    ++++            ++++++++++++++++                ........",
"    ........++++            ++++++++++++++++                ........    ++++            ++++++++++++++++                ........",
"    ........++++            ++++++++++++++++                ........    ++++            ++++++++++++++++                ........",
"    ++++++++++++++++                                    ....++++++++++++++++++++                                    ....++++++++",
"    ++++++++++++++++                                    ....++++++++++++++++++++                                    ....++++++++",
"    ++++++++++++++++                                    ....++++++++++++++++++++                                    ....++++++++",
"    ++++++++++++++++                                    ....++++++++++++++++++++                                    ....++++++++",
"....++++++++++++++++++++                                ....++++++++++++++++++++++++                                ....++++++++",
"....++++++++++++++++++++                                ....++++++++++++++++++++++++                                ....++++++++",
"....++++++++++++++++++++                                ....++++++++++++++++++++++++                                ....++++++++",
"....++++++++++++++++++++                                ....++++++++++++++++++++++++                                ....++++++++",
"++++++++++++++++++++++++      ..................++++    ....++++++++++++++++++++++++        ................++++    ....++++++++",
"++++++++++++++++++++++++      ..................++++    ....++++++++++++++++++++++++        ................++++    ....++++++++",
"++++++++++++++++++++++++      ..................++++    ....++++++++++++++++++++++++        ................++++    ....++++++++",
"++++++++++++++++++++++++      ..................++++    ....++++++++++++++++++++++++        ................++++    ....++++++++",
"++++++++++++++++++++++++    ..++++++++++++++++++++++    ++++++++++++++++++++++++++++    ....++++++++++++++++++++    ++++++++++++",
"++++++++++++++++++++++++    ..++++++++++++++++++++++    ++++++++++++++++++++++++++++    ....++++++++++++++++++++    ++++++++++++",
"++++++++++++++++++++++++    ..++++++++++++++++++++++    ++++++++++++++++++++++++++++    ....++++++++++++++++++++    ++++++++++++",
"++++++++++++++++++++++++    ..++++++++++++++++++++++    ++++++++++++++++++++++++++++    ....++++++++++++++++++++    ++++++++++++",
"    ++++++++++++++++        ..++++++++++++++++++++++        ++++++++++++++++++++        ....++++++++++++++++++++        ++++++++",
"    ++++++++++++++++        ..++++++++++++++++++++++        ++++++++++++++++++++        ....++++++++++++++++++++        ++++++++",
"    ++++++++++++++++        ..++++++++++++++++++++++        ++++++++++++++++++++        ....++++++++++++++++++++        ++++++++",
"    ++++++++++++++++        ..++++++++++++++++++++++        ++++++++++++++++++++        ....++++++++++++++++++++        ++++++++",
"                              ++++++++++++++++++                                            ++++++++++++++++                    ",
"                              ++++++++++++++++++                                            ++++++++++++++++                    ",
"                              ++++++++++++++++++                                            ++++++++++++++++                    ",
"                              ++++++++++++++++++                                            ++++++++++++++++                    "};
