/* XPM */
static char * char_fly3_xpm[] = {
"124 68 6 1",
" 	c #1EFA48",
".	c #432B4F",
"+	c #AB44E3",
"@	c #82468F",
"#	c #ECE4F2",
"$	c #262B44",
"                                                                                                                            ",
"                                                                                                                            ",
"                                                                                                                            ",
"                                                                                                                            ",
"                                                                                                                            ",
"                                                                                                                            ",
"                                                                                                                            ",
"                                                                                                                            ",
"                                                                                                                            ",
"                                                                                                                            ",
"                                                                                                                            ",
"                                                                                                                            ",
"                                                                                                                            ",
"                                                                                                                            ",
"                                                                                                                            ",
"                                                                                                                            ",
"                                                                                                                            ",
"                                                                                                                            ",
"                                                                                                                            ",
"                                                                                                                            ",
"                                                                                                                            ",
"                                                                                                                            ",
"                                                                                                                            ",
"                                                                                                                            ",
"                                                                                        ................                    ",
"                                                                                        ................                    ",
"                                                                                        ................                    ",
"                                                                                        ................                    ",
"                        ............................................                ....++++++++............                ",
"                        ............................................                ....++++++++............                ",
"                        ............................................                ....++++++++............                ",
"                        ............................................                ....++++++++............                ",
"                ........@@@@@@@@@@@@@@@@@@@@@@@@@@@@@@@@@@@@@@@@@@@@........    ....++++++++....####....++++....            ",
"                ........@@@@@@@@@@@@@@@@@@@@@@@@@@@@@@@@@@@@@@@@@@@@........    ....++++++++....####....++++....            ",
"                ........@@@@@@@@@@@@@@@@@@@@@@@@@@@@@@@@@@@@@@@@@@@@........    ....++++++++....####....++++....            ",
"                ........@@@@@@@@@@@@@@@@@@@@@@@@@@@@@@@@@@@@@@@@@@@@........    ....++++++++....####....++++....            ",
"                        ................@@@@@@@@@@@@@@@@@@@@@@@@@@@@@@@@............++++++++++++####....++++++++........    ",
"                        ................@@@@@@@@@@@@@@@@@@@@@@@@@@@@@@@@............++++++++++++####....++++++++........    ",
"                        ................@@@@@@@@@@@@@@@@@@@@@@@@@@@@@@@@............++++++++++++####....++++++++........    ",
"                        ................@@@@@@@@@@@@@@@@@@@@@@@@@@@@@@@@............++++++++++++####....++++++++........    ",
"............                            ........@@@@@@@@@@@@@@@@@@@@....++++....++++++++++++++++++++++++++++@@@@@@@@@@@@....",
"............                            ........@@@@@@@@@@@@@@@@@@@@....++++....++++++++++++++++++++++++++++@@@@@@@@@@@@....",
"............                            ........@@@@@@@@@@@@@@@@@@@@....++++....++++++++++++++++++++++++++++@@@@@@@@@@@@....",
"............                            ........@@@@@@@@@@@@@@@@@@@@....++++....++++++++++++++++++++++++++++@@@@@@@@@@@@....",
"            ............................................++++++++++++++++++++....++++++++....++++++++++++++++@@@@@@@@....    ",
"            ............................................++++++++++++++++++++....++++++++....++++++++++++++++@@@@@@@@....    ",
"            ............................................++++++++++++++++++++....++++++++....++++++++++++++++@@@@@@@@....    ",
"            ............................................++++++++++++++++++++....++++++++....++++++++++++++++@@@@@@@@....    ",
"                                        ........++++++++++++++++++++++++++++++++++++++++............................        ",
"                                        ........++++++++++++++++++++++++++++++++++++++++............................        ",
"                                        ........++++++++++++++++++++++++++++++++++++++++............................        ",
"                                        ........++++++++++++++++++++++++++++++++++++++++............................        ",
"                                                ........++++++++++++++++++++++++........                                    ",
"                                                ........++++++++++++++++++++++++........                                    ",
"                                                ........++++++++++++++++++++++++........                                    ",
"                                                ........++++++++++++++++++++++++........                                    ",
"                                                        ........................                                            ",
"                                                        ........................                                            ",
"                                                        ........................                                            ",
"                                                        ........................                                            ",
"                                                          $$............                                                    ",
"                                                          $$............                                                    ",
"                                                            ............                                                    ",
"                                                            ............                                                    ",
"                                                        ....                                                                ",
"                                                        ....                                                                ",
"                                                        ....                                                                ",
"                                                        ....                                                                "};
