/* XPM */
static char * diamond_xpm[] = {
"128 128 9 1",
" 	c #1EFA48",
".	c #262B44",
"+	c #000000",
"@	c #FFFFFF",
"#	c #99D45F",
"$	c #46B05A",
"%	c #3A4466",
"&	c #308C72",
"*	c #1E6962",
"                                                                                                                                ",
"                                                                                                                                ",
"                                                                                                                                ",
"                                                                                                                                ",
"                                                                                                                                ",
"                                                                                                                                ",
"                                                                                                                                ",
"                                                                                                                                ",
"                                                                                                                                ",
"                                                                                                                                ",
"                                                                                                                                ",
"                                                                                                                                ",
"                                                                                                                                ",
"                                                                                                                                ",
"                                                                                                                                ",
"                                                                                                                                ",
"                                                                                                                                ",
"                                                                                                                                ",
"                                                                  ..++++++++                                                    ",
"                                                                  ..++++++++                                                    ",
"                                                                  ++@@@@@@++                                                    ",
"                                                                  ++@@@@@@++                                                    ",
"                                                                ++@@@@@@@@##++                                                  ",
"                                                                ++@@@@@@@@##++                                                  ",
"                                                              ++@@########@@++                                                  ",
"                                                              ++@@########@@++                                                  ",
"                                                            ++@@##########@@##++                                                ",
"                                                            ++@@##########@@##++                                                ",
"                                                          ++##############@@@@++                                                ",
"                                                          ++##############@@@@++                                                ",
"                                                        ++################@@@@##++                                              ",
"                                                        ++################@@@@##++                                              ",
"                                                      ++##@@##############@@@@@@++                                              ",
"                                                      ++##@@##############@@@@@@++                                              ",
"                                                      ++##@@@@############@@@@@@##++                                            ",
"                                                      ++##@@@@############@@@@@@##++                                            ",
"                                                    ++######@@@@##########@@@@@@@@++                                            ",
"                                                    ++######@@@@##########@@@@@@@@++                                            ",
"                                                    ++######@@@@@@######@@@@@@@@@@##++                                          ",
"                                                    ++######@@@@@@######@@@@@@@@@@##++                                          ",
"                                                  ++######@@@@##@@@@@@@@@@####@@@@@@++                                          ",
"                                                  ++######@@@@##@@@@@@@@@@####@@@@@@++                                          ",
"                                                  ++######@@$$$$##@@@@@@######@@@@@@##++                                        ",
"                                                  ++######@@$$$$##@@@@@@######@@@@@@##++                                        ",
"                                                ++######@@@@$$$$####@@##########@@@@@@++                                        ",
"                                                ++######@@@@$$$$####@@##########@@@@@@++                                        ",
"                                                ++######@@$$$$$$####@@##########@@@@@@##++                                      ",
"                                                ++######@@$$$$$$####@@##########@@@@@@##++                                      ",
"                                              ++######@@@@$$$$$$$$##@@############@@@@@@++                                      ",
"                                              ++######@@@@$$$$$$$$##@@############@@@@@@++                                      ",
"                                              ++####$$@@$$$$$$$$$$##@@############@@@@@@##++                                    ",
"                                              ++####$$@@$$$$$$$$$$##@@############@@@@@@##++                                    ",
"                                            ++####$$@@@@$$$$$$$$$$##@@##############@@@@@@++%%                                  ",
"                                            ++####$$@@@@$$$$$$$$$$##@@##############@@@@@@++%%                                  ",
"                                            ++##$$$$@@$$$$$$$$$$$$$$@@##############@@@@@@##++                                  ",
"                                            ++##$$$$@@$$$$$$$$$$$$$$@@##############@@@@@@##++                                  ",
"                                          ++##$$$$@@@@$$$$$$$$$$$$$$@@################@@@@@@++                                  ",
"                                          ++##$$$$@@@@$$$$$$$$$$$$$$@@################@@@@@@++                                  ",
"                                          ++$$$$$$@@$$$$$$$$$$$$$$&&@@################@@@@@@##++                                ",
"                                          ++$$$$$$@@$$$$$$$$$$$$$$&&@@################@@@@@@##++                                ",
"                                        ++$$$$@@@@@@$$$$$$$$$$$$$$&&@@##################@@@@##++                                ",
"                                        ++$$$$@@@@@@$$$$$$$$$$$$$$&&@@##################@@@@##++                                ",
"                                        ++$$@@$$$$@@@@$$$$$$$$$$$$&&@@##################@@@@####++                              ",
"                                        ++$$@@$$$$@@@@$$$$$$$$$$$$&&@@##################@@@@####++                              ",
"                                      ++@@@@$$&&&&$$@@@@$$$$$$$$&&&&@@####################@@####++                              ",
"                                      ++@@@@$$&&&&$$@@@@$$$$$$$$&&&&@@####################@@####++                              ",
"                                      ++##$$&&&&&&&&$$@@@@$$$$&&&&$$@@####################@@####++                              ",
"                                      ++##$$&&&&&&&&$$@@@@$$$$&&&&$$@@####################@@####++                              ",
"                                    ++##$$&&$$$$$$&&&&$$@@@@$$&&$$@@@@@@####################$$$$++                              ",
"                                    ++##$$&&$$$$$$&&&&$$@@@@$$&&$$@@@@@@####################$$$$++                              ",
"                                    ++$$&&$$$$$$$$$$$$&&$$@@@@$$@@@@&&@@@@##################$$$$++                              ",
"                                    ++$$&&$$$$$$$$$$$$&&$$@@@@$$@@@@&&@@@@##################$$$$++                              ",
"                                  ++&&$$$$$$$$$$$$$$$$$$$$$$@@@@@@&&&&&&@@@@################$$$$++                              ",
"                                  ++&&$$$$$$$$$$$$$$$$$$$$$$@@@@@@&&&&&&@@@@################$$$$++                              ",
"                                  ++&&&&$$$$$$$$$$$$$$$$$$$$$$@@&&&&&&&&&&@@################$$$$++                              ",
"                                  ++&&&&$$$$$$$$$$$$$$$$$$$$$$@@&&&&&&&&&&@@################$$$$++                              ",
"                                  ++&&&&&&$$$$$$$$$$$$$$$$$$$$##&&&&&&&&&&&&@@##############$$$$++                              ",
"                                  ++&&&&&&$$$$$$$$$$$$$$$$$$$$##&&&&&&&&&&&&@@##############$$$$++                              ",
"                                  ++&&&&&&&&$$$$$$$$$$$$$$$$$$##&&&&&&&&&&&&&&@@##########@@$$$$++                              ",
"                                  ++&&&&&&&&$$$$$$$$$$$$$$$$$$##&&&&&&&&&&&&&&@@##########@@$$$$++                              ",
"                                    ++&&&&&&&&$$$$$$$$$$$$$$$$##&&&&&&&&&&&&&&&&@@######@@&&&&$$++                              ",
"                                    ++&&&&&&&&$$$$$$$$$$$$$$$$##&&&&&&&&&&&&&&&&@@######@@&&&&$$++                              ",
"                                    ++&&&&&&&&&&$$$$$$$$$$$$$$##&&&&&&&&&&&&&&&&&&####@@&&&&&&&&++                              ",
"                                    ++&&&&&&&&&&$$$$$$$$$$$$$$##&&&&&&&&&&&&&&&&&&####@@&&&&&&&&++                              ",
"                                      ++&&&&&&&&&&$$&&$$$$$$&&$$&&&&&&&&&&&&&&&&&&&&##&&&&&&&&&&++                              ",
"                                      ++&&&&&&&&&&$$&&$$$$$$&&$$&&&&&&&&&&&&&&&&&&&&##&&&&&&&&&&++                              ",
"                                      ++&&&&&&&&&&&&$$&&$$&&&&$$&&**&&&&&&&&&&&&&&&&$$$$$$$$$$$$++                              ",
"                                      ++&&&&&&&&&&&&$$&&$$&&&&$$&&**&&&&&&&&&&&&&&&&$$$$$$$$$$$$++                              ",
"                                        ++&&&&&&&&**&&$$&&&&&&$$&&****&&&&&&&&&&$$$$&&&&&&&&$$$$++                              ",
"                                        ++&&&&&&&&**&&$$&&&&&&$$&&****&&&&&&&&&&$$$$&&&&&&&&$$$$++                              ",
"                                        ++&&&&&&&&&&**&&$$&&&&$$&&******&&&&$$$$&&&&&&&&&&&&&&$$++                              ",
"                                        ++&&&&&&&&&&**&&$$&&&&$$&&******&&&&$$$$&&&&&&&&&&&&&&$$++                              ",
"                                          ++&&&&&&&&****&&$$&&$$&&****&&$$$$&&&&&&&&&&&&&&&&&&++                                ",
"                                          ++&&&&&&&&****&&$$&&$$&&****&&$$$$&&&&&&&&&&&&&&&&&&++                                ",
"                                          ++&&&&&&&&&&****&&$$$$&&&&$$$$&&&&&&&&&&&&&&&&&&&&++                                  ",
"                                          ++&&&&&&&&&&****&&$$$$&&&&$$$$&&&&&&&&&&&&&&&&&&&&++                                  ",
"                                            ++&&&&&&&&******&&$$$$$$&&&&&&&&&&&&&&&&****&&++                                    ",
"                                            ++&&&&&&&&******&&$$$$$$&&&&&&&&&&&&&&&&****&&++                                    ",
"                                              ++&&&&&&****&&$$&&&&&&&&&&&&&&&&********&&++                                      ",
"                                              ++&&&&&&****&&$$&&&&&&&&&&&&&&&&********&&++                                      ",
"                                                ++&&&&**&&$$&&&&&&&&&&&&************&&++                                        ",
"                                                ++&&&&**&&$$&&&&&&&&&&&&************&&++                                        ",
"                                                  ++&&&&$$&&&&&&&&****************&&++                                          ",
"                                                  ++&&&&$$&&&&&&&&****************&&++                                          ",
"                                                    ++$$&&&&********************&&++                                            ",
"                                                    ++$$&&&&********************&&++                                            ",
"                                                      ++++++++++++++++++++++++++++                                              ",
"                                                      ++++++++++++++++++++++++++++                                              ",
"                                                                                                                                ",
"                                                                                                                                ",
"                                                                                                                                ",
"                                                                                                                                ",
"                                                                                                                                ",
"                                                                                                                                ",
"                                                                                                                                ",
"                                                                                                                                ",
"                                                                                                                                ",
"                                                                                                                                ",
"                                                                                                                                ",
"                                                                                                                                ",
"                                                                                                                                ",
"                                                                                                                                ",
"                                                                                                                                ",
"                                                                                                                                ",
"                                                                                                                                ",
"                                                                                                                                ",
"                                                                                                                                ",
"                                                                                                                                "};
