/* XPM */
static char * mouse_run1_left_xpm[] = {
"32 18 8 1",
" 	c #1EFA48",
".	c #000000",
"+	c #717171",
"@	c #8C8C8C",
"#	c #CFB4B4",
"$	c #261700",
"%	c #181425",
"&	c #9B4F4F",
"                                ",
"                                ",
"      ....  ......              ",
"      ....  ......              ",
"    ..++++..@@####..            ",
"    ..++++..@@####..            ",
"  ..@@@@@@@@@@####..            ",
"  ..@@@@@@@@@@####..            ",
"  ..$$@@$$@@####....            ",
"%%..$$@@$$@@####....            ",
"..&&@@@@@@@@@@++++++........    ",
"..&&@@@@@@@@@@++++++........    ",
"  ..####@@@@++++++++++######..  ",
"  ..####@@@@++++++++++######..  ",
"    ....++++++++++++++......##..",
"    ....++++++++++++++......##..",
"        ..++++....++..      ..  ",
"        ..++++....++..      ..  "};
